<?xml version="1.0" standalone="no"?>
<!DOCTYPE svg PUBLIC "-//W3C//DTD SVG 20010904//EN"
 "http://www.w3.org/TR/2001/REC-SVG-20010904/DTD/svg10.dtd">
<svg version="1.0" xmlns="http://www.w3.org/2000/svg"
 width="2986.000000pt" height="3417.000000pt" viewBox="0 0 2986.000000 3417.000000"
 preserveAspectRatio="xMidYMid meet">

<g transform="translate(0.000000,3417.000000) scale(0.100000,-0.100000)"
fill="#000000" stroke="none">
<path d="M14870 34103 c-316 -381 -879 -962 -1320 -1363 -1767 -1605 -3848
-2689 -6230 -3244 -1043 -243 -2114 -381 -3310 -427 -347 -13 -1428 -7 -1740
10 -721 40 -1419 103 -2040 185 -96 13 -177 21 -180 19 -5 -5 -13 -183 -31
-743 -17 -509 -18 -2218 -1 -2695 16 -461 29 -760 48 -1095 384 -6994 2455
-12831 6218 -17525 2097 -2615 4726 -4879 7869 -6773 401 -242 762 -452 777
-452 15 0 376 210 777 452 3609 2176 6547 4843 8769 7963 3070 4308 4820 9479
5269 15560 43 590 72 1134 97 1855 17 485 17 2208 -1 2718 -18 562 -26 730
-31 735 -3 2 -138 -13 -300 -33 -1052 -133 -1939 -190 -2945 -190 -783 0
-1366 30 -2065 106 -2743 296 -5153 1215 -7180 2739 -846 635 -1587 1336
-2357 2228 -18 20 -34 37 -35 36 -2 0 -28 -30 -58 -66z m156 -278 c486 -552
1047 -1100 1605 -1566 1442 -1205 3076 -2086 4904 -2644 2140 -653 4537 -856
7190 -609 266 24 610 62 815 89 58 7 108 10 111 7 10 -10 28 -559 41 -1267 18
-976 -6 -2131 -68 -3170 -422 -7179 -2649 -13155 -6673 -17909 -1985 -2345
-4433 -4408 -7272 -6129 -349 -211 -736 -437 -749 -437 -13 0 -401 226 -745
435 -4362 2645 -7749 6049 -10072 10125 -2151 3774 -3421 8115 -3818 13055
-104 1293 -150 2764 -127 4017 13 706 31 1270 41 1280 3 4 53 1 111 -7 1312
-173 2822 -232 4069 -160 3646 211 6692 1409 9165 3603 430 382 1047 1006
1335 1350 19 23 38 41 42 40 4 -2 46 -48 95 -103z"/>
<path d="M14720 32033 c-2675 -2559 -6061 -3994 -10045 -4258 -453 -30 -628
-36 -1180 -42 -702 -7 -1331 12 -1965 61 -91 7 -167 11 -170 8 -3 -2 -7 -288
-9 -635 -14 -2646 256 -5347 780 -7782 93 -430 264 -1144 350 -1457 l21 -78
1734 0 c1400 0 1734 -2 1734 -13 0 -7 -9 -75 -19 -152 -31 -218 -41 -387 -41
-672 l0 -263 -1544 0 -1544 0 35 -112 c19 -62 86 -266 148 -453 1115 -3345
2788 -6303 5028 -8890 653 -753 1416 -1535 2175 -2227 1217 -1110 2624 -2179
4082 -3100 368 -232 625 -388 640 -388 25 0 689 414 1130 704 4512 2973 7831
6847 9891 11548 389 888 783 1938 1052 2806 l35 112 -4674 0 -4674 0 0 23 c0
80 66 379 131 595 36 118 65 199 157 440 l16 42 4683 0 4682 0 11 38 c46 166
243 973 304 1247 469 2115 719 4138 818 6620 12 308 19 2038 8 2047 -3 3 -79
-1 -170 -8 -634 -49 -1263 -68 -1965 -61 -552 6 -727 12 -1180 42 -2972 197
-5624 1049 -7880 2533 -792 521 -1481 1071 -2197 1754 -97 92 -178 168 -180
167 -1 0 -95 -88 -208 -196z m610 -3453 c915 -51 1696 -372 2426 -996 154
-132 481 -465 613 -624 174 -211 196 -234 252 -265 47 -26 64 -30 134 -30 112
0 170 30 375 194 198 158 407 308 606 436 l147 94 46 -26 c295 -170 463 -410
516 -737 8 -50 15 -112 15 -137 l0 -46 -121 -78 c-488 -314 -920 -685 -1218
-1047 l-63 -77 -37 15 c-541 230 -960 377 -1438 504 l-82 22 -16 56 c-54 195
-148 401 -266 582 -134 205 -263 345 -452 491 -393 304 -804 479 -1287 546
-174 24 -558 24 -725 -1 -430 -62 -785 -208 -1123 -460 -208 -156 -360 -310
-530 -541 -249 -335 -538 -938 -620 -1290 -54 -229 -52 -145 -52 -2605 l0
-2280 2348 -3 2347 -3 95 -22 c292 -69 490 -172 651 -339 216 -224 321 -483
336 -828 10 -228 -19 -330 -186 -659 -589 -1159 -728 -2085 -426 -2836 141
-352 336 -644 537 -804 74 -60 241 -152 307 -171 21 -6 23 -5 16 11 -40 95
-57 184 -58 304 0 191 44 322 158 469 148 188 345 281 597 281 136 0 223 -20
334 -74 151 -75 295 -231 363 -394 49 -118 63 -283 35 -402 -64 -275 -417
-632 -776 -786 -140 -60 -261 -85 -438 -91 -129 -4 -176 -2 -279 16 -468 80
-963 388 -1302 811 -339 424 -513 850 -595 1465 -21 154 -30 653 -15 841 49
615 220 1253 510 1908 34 76 61 146 59 155 -8 42 54 41 -2335 41 l-2283 0 0
-545 0 -545 -555 0 -555 0 0 3119 c0 2101 -3 3153 -10 3222 -60 586 -352 1054
-880 1409 -233 157 -608 336 -895 427 -21 7 -31 18 -38 44 -13 50 -1 389 17
494 58 319 197 544 417 676 l65 39 85 -25 c386 -115 749 -307 1084 -575 147
-118 438 -403 507 -497 l46 -62 33 62 c292 552 715 1077 1144 1421 569 456
1237 706 1990 746 208 10 254 11 445 0z m250 -2730 c1473 -75 2843 -473 4203
-1219 110 -61 203 -105 234 -111 71 -15 148 0 248 50 118 58 204 127 355 284
326 338 476 475 723 657 l118 87 71 -19 c219 -61 415 -191 586 -389 68 -80
172 -223 172 -239 0 -3 -34 -47 -76 -96 -601 -710 -973 -1545 -1060 -2378 -9
-89 -18 -167 -20 -174 -2 -8 -47 9 -131 48 -204 97 -444 202 -633 277 -187 75
-559 209 -650 236 l-56 15 -68 115 c-98 164 -212 312 -356 460 -241 248 -510
436 -907 635 -703 352 -1514 554 -2553 638 -297 24 -830 24 -1070 0 -647 -65
-1218 -206 -1856 -458 -110 -43 -203 -79 -207 -79 -11 0 -8 499 3 635 16 197
53 359 121 536 l30 78 122 40 c887 287 1798 415 2657 371z m-7166 -975 c490
-277 909 -704 1140 -1164 20 -39 40 -71 44 -71 4 0 53 36 110 80 232 182 581
428 845 599 181 117 485 301 497 301 10 0 26 -74 40 -180 5 -41 10 -307 10
-591 l0 -515 -122 -84 c-163 -111 -389 -277 -572 -418 -171 -133 -212 -181
-292 -348 l-54 -110 -187 -93 c-301 -149 -628 -332 -925 -518 -65 -40 -119
-73 -121 -73 -2 0 -7 31 -11 69 -10 113 -55 362 -91 511 -177 720 -498 1181
-998 1432 l-100 50 6 176 c7 196 27 315 78 456 62 171 186 330 337 430 77 51
213 114 247 115 11 1 64 -24 119 -54z m9225 -730 c88 -30 219 -80 292 -111
172 -72 468 -221 475 -238 3 -7 -6 -71 -20 -142 -68 -354 -98 -668 -99 -1024
0 -450 46 -771 164 -1137 181 -562 483 -1099 905 -1611 129 -156 140 -206 64
-311 -46 -64 -112 -101 -177 -101 -66 0 -100 17 -241 117 -218 155 -394 306
-587 504 -905 928 -1243 2202 -1010 3812 37 257 46 297 60 297 7 0 85 -25 174
-55z m-1444 -895 c337 -16 775 -49 889 -66 l38 -6 -6 -87 c-13 -177 19 -689
59 -936 8 -49 13 -91 11 -93 -2 -1 -86 6 -187 17 -1371 149 -2884 84 -4148
-178 -107 -22 -195 -40 -196 -38 -1 1 -5 255 -9 564 -6 531 -5 562 11 567 32
9 274 54 458 85 535 89 1111 147 1735 174 180 8 1162 6 1345 -3z m2550 -342
c995 -231 1938 -597 2767 -1074 156 -90 228 -124 339 -159 120 -37 247 -55
404 -55 177 0 284 16 532 81 182 47 210 52 343 56 160 6 229 -5 327 -53 75
-36 157 -123 197 -208 50 -104 65 -179 81 -396 19 -251 38 -399 76 -585 107
-534 314 -999 630 -1416 213 -281 208 -471 -14 -636 -106 -78 -252 -103 -391
-67 -33 9 -101 36 -149 61 -174 90 -321 220 -586 518 -413 465 -773 795 -1276
1173 -245 184 -620 436 -885 595 -720 431 -1492 758 -2344 992 -110 31 -201
56 -202 58 -1 1 -12 48 -23 103 -51 253 -75 585 -65 877 l7 188 31 -7 c17 -3
108 -24 201 -46z m-7647 -939 l-3 -590 -170 -73 c-539 -231 -947 -450 -1425
-764 -257 -169 -405 -274 -594 -425 -951 -759 -1495 -1619 -1636 -2584 -122
-838 68 -1684 537 -2398 178 -270 330 -453 615 -740 l218 -219 0 -693 c0 -474
-3 -693 -10 -693 -21 0 -414 299 -590 449 -662 565 -1130 1145 -1454 1801
-259 524 -402 1049 -447 1640 -15 203 -7 699 15 880 115 941 465 1731 1110
2505 55 66 193 214 306 329 392 399 763 702 1275 1041 619 410 1214 719 1922
998 294 116 316 125 326 126 4 1 6 -265 5 -590z m9462 -1151 c201 -105 452
-247 626 -356 l138 -87 23 -95 c129 -528 396 -1284 632 -1794 50 -108 59 -152
38 -192 -45 -87 -177 -141 -250 -103 -58 31 -435 473 -669 784 -491 651 -815
1286 -974 1903 -19 73 -34 141 -34 152 0 16 22 9 158 -56 86 -41 227 -111 312
-156z m-8191 -2958 c1617 0 2443 -3 2512 -11 269 -27 458 -99 624 -236 138
-115 254 -300 302 -481 23 -85 26 -117 26 -262 0 -178 -19 -307 -63 -423 -12
-32 -79 -144 -150 -250 -154 -231 -229 -362 -326 -561 -171 -355 -247 -650
-261 -1006 -18 -491 100 -873 350 -1137 83 -87 165 -133 238 -133 l47 0 -5 38
c-7 49 12 167 38 246 54 160 221 348 374 421 96 45 145 56 271 62 248 11 389
-43 560 -215 125 -126 183 -245 204 -420 18 -147 -9 -293 -78 -427 -53 -101
-185 -231 -339 -332 -207 -137 -362 -208 -563 -261 -97 -25 -119 -27 -295 -26
-208 0 -281 14 -460 83 -533 206 -1103 921 -1286 1615 -177 672 -78 1388 297
2139 80 161 182 345 231 417 12 19 23 38 23 42 0 5 -1053 8 -2340 8 l-2340 0
3 -3112 c3 -3429 -2 -3145 63 -3435 92 -412 282 -828 531 -1166 97 -132 331
-363 451 -447 l94 -65 -5 -210 c-4 -196 -6 -218 -35 -330 -30 -114 -102 -285
-119 -285 -5 0 -60 20 -123 44 -501 190 -892 487 -1226 931 -117 156 -222 329
-334 546 l-95 186 -60 -54 c-68 -63 -240 -180 -326 -223 -240 -122 -555 -181
-816 -154 l-60 6 -54 74 c-214 290 -254 607 -118 945 l30 76 117 6 c381 21
642 135 780 341 79 118 129 266 169 496 17 100 18 325 20 4487 l3 4381 123 99
c261 212 579 437 861 609 l121 75 3 -1356 2 -1355 2409 0z m-3739 -560 l0
-550 -579 0 -578 0 -7 38 c-3 20 -6 132 -6 247 0 271 23 475 81 728 l21 87
534 0 534 0 0 -550z m7724 448 c-53 -241 -91 -543 -101 -815 l-6 -183 -96 0
-96 0 -1 138 c-2 278 -76 505 -232 710 -58 75 -152 171 -222 225 l-35 27 406
0 406 0 -23 -102z m-3924 -5634 c0 -3089 3 -4452 11 -4537 68 -761 356 -1293
891 -1644 305 -200 731 -332 1203 -373 388 -33 717 20 979 158 87 46 185 110
186 123 0 3 -22 13 -49 22 -228 83 -449 324 -531 582 -32 99 -40 327 -15 446
33 165 115 312 249 445 137 136 273 208 451 239 297 51 571 -25 781 -219 174
-160 262 -332 282 -551 23 -249 -34 -477 -205 -819 -187 -374 -394 -617 -696
-819 -299 -200 -642 -321 -1087 -383 -156 -21 -630 -30 -797 -15 -915 84
-1618 450 -2104 1097 -108 143 -191 281 -286 471 l-86 173 -70 -66 c-225 -213
-524 -373 -841 -450 -119 -28 -108 -32 -231 90 -215 213 -307 470 -275 760 20
183 4 162 175 231 184 74 270 116 400 194 128 76 252 176 316 254 101 124 180
323 220 555 19 112 19 195 19 4283 l0 4169 555 0 555 0 0 -4416z m11397 3486
c62 -28 137 -102 164 -163 21 -46 24 -66 24 -182 -1 -109 -5 -146 -28 -227
-33 -121 -81 -250 -159 -425 -391 -886 -925 -1715 -1648 -2558 -81 -93 -169
-194 -196 -222 l-49 -52 -129 44 c-390 136 -764 132 -1161 -10 -66 -24 -230
-88 -365 -143 -1393 -565 -3009 -852 -4795 -852 -964 0 -1941 92 -2782 261
l-53 10 0 569 0 568 58 -13 c465 -109 1132 -205 1722 -249 651 -49 1425 -49
2095 0 1938 140 3636 696 5045 1652 681 462 1175 937 1555 1497 197 291 352
448 493 500 56 20 159 18 209 -5z m-13380 -2608 c142 -70 348 -166 456 -212
l197 -85 0 -592 0 -592 -67 25 c-234 87 -484 188 -653 264 l-195 86 -3 617
c-1 339 0 617 2 617 2 0 120 -57 263 -128z m3354 -2912 c331 -48 622 -308 711
-636 17 -64 21 -108 21 -229 1 -223 -34 -341 -161 -536 -279 -428 -709 -736
-1272 -913 -116 -36 -400 -106 -433 -106 -16 0 -17 21 -15 335 l3 336 116 39
c64 21 166 62 228 91 l111 52 -68 66 c-150 145 -238 325 -261 534 -37 333 114
651 398 838 174 114 401 161 622 129z"/>
</g>
</svg>
