<?xml version="1.0" standalone="no"?>
<!DOCTYPE svg PUBLIC "-//W3C//DTD SVG 20010904//EN"
 "http://www.w3.org/TR/2001/REC-SVG-20010904/DTD/svg10.dtd">
<svg version="1.0" xmlns="http://www.w3.org/2000/svg"
 width="1254.000000pt" height="836.000000pt" viewBox="0 0 1254.000000 836.000000"
 preserveAspectRatio="xMidYMid meet">

<g transform="translate(0.000000,836.000000) scale(0.100000,-0.100000)"
fill="#000000" stroke="none">
<path d="M1 8238 l1 -123 18 70 c9 39 20 94 23 123 6 50 5 52 -18 52 l-25 0 1
-122z"/>
<path d="M60 8351 c0 -6 4 -12 10 -16 5 -3 7 -13 4 -23 -5 -14 -4 -15 5 -2 9
13 10 13 15 0 2 -8 15 -46 27 -85 20 -63 22 -90 22 -265 0 -179 -1 -199 -21
-239 -12 -25 -22 -51 -22 -58 0 -7 -12 -19 -27 -27 -24 -12 -30 -12 -50 1
l-23 15 0 -1431 c0 -1265 2 -1431 15 -1431 8 0 15 7 15 15 0 10 10 15 30 15
24 0 44 -13 92 -59 48 -47 69 -61 96 -63 32 -3 39 -9 63 -56 15 -29 44 -77 64
-107 l38 -54 -8 -103 c-4 -57 -8 -112 -9 -124 -1 -11 -18 -41 -38 -65 -19 -24
-38 -56 -42 -71 -3 -15 -15 -30 -26 -33 -11 -4 -18 -11 -15 -16 3 -5 0 -6 -8
-3 -23 8 -67 -52 -67 -92 0 -34 -1 -34 -44 -34 -25 0 -48 5 -51 10 -4 6 -29 9
-56 8 l-49 -3 2 -140 3 -139 335 -43 c355 -45 360 -47 360 -99 0 -54 -13 -54
-445 11 -126 19 -235 35 -242 35 -11 0 -13 -348 -13 -1790 l0 -1790 2148 0
2149 0 15 68 c9 37 21 85 27 107 6 22 11 102 11 178 0 110 -3 142 -15 153 -24
24 -18 64 19 137 19 36 37 81 40 99 3 18 17 85 31 148 30 139 34 240 8 240 -9
0 -57 -23 -105 -50 -98 -56 -127 -66 -58 -20 l45 30 -33 6 c-30 6 -36 15 -35
51 1 7 -3 11 -7 8 -5 -3 -11 1 -13 7 -3 7 -6 2 -6 -12 -2 -35 -13 -49 -38 -47
-14 1 -24 10 -28 24 -8 34 -25 28 -18 -7 3 -19 1 -30 -6 -30 -6 0 -11 9 -11
20 0 11 -4 20 -10 20 -5 0 -7 -7 -4 -15 4 -8 2 -15 -4 -15 -12 0 -24 29 -16
41 3 5 0 9 -5 9 -6 0 -10 6 -9 12 2 7 -7 14 -19 16 -23 3 -34 42 -13 42 5 0 7
7 4 15 -4 8 -2 15 4 15 6 0 13 -6 15 -12 3 -7 6 -3 6 9 1 16 6 21 16 17 25
-10 17 13 -12 35 -16 11 -23 21 -16 21 7 0 1 11 -12 25 -30 29 -34 56 -5 30
12 -11 20 -13 20 -6 0 7 -14 18 -31 25 -28 12 -29 14 -10 19 11 3 25 -1 32 -9
7 -8 19 -12 26 -9 17 6 56 -19 45 -29 -4 -4 5 -5 19 -1 30 7 50 -12 28 -26 -8
-5 -17 -3 -21 4 -5 7 -7 0 -6 -15 3 -31 14 -37 20 -10 3 13 10 8 27 -20 13
-21 26 -36 31 -33 12 8 19 44 9 51 -5 3 -9 0 -9 -6 0 -6 -5 -8 -11 -4 -8 5 -8
9 1 14 7 4 9 13 5 20 -5 8 -3 11 6 8 8 -2 18 -14 24 -26 10 -23 25 -30 25 -11
0 5 4 8 9 5 4 -3 17 1 27 9 13 9 32 12 57 8 25 -4 37 -2 37 6 0 7 4 10 9 6 5
-3 12 -1 16 5 3 5 15 10 26 10 10 0 19 6 19 13 0 8 3 8 8 2 4 -6 21 -12 39
-13 28 -2 31 0 26 20 -3 18 -2 20 5 8 14 -21 18 -72 8 -89 -7 -11 -12 -9 -22
10 l-13 24 -1 -22 c0 -15 -6 -23 -16 -23 -9 0 -22 -7 -28 -15 -6 -8 -30 -16
-53 -18 -24 -1 -48 -8 -55 -15 -11 -11 -10 -12 5 -6 15 5 17 1 15 -27 -2 -41
-24 -89 -40 -89 -6 0 -9 -2 -6 -6 3 -3 20 3 37 14 17 10 28 21 25 24 -3 3 46
32 108 63 78 40 107 51 94 36 -19 -21 -19 -21 35 3 221 98 413 202 403 218 -3
4 1 6 8 3 16 -6 70 39 60 50 -4 5 -2 5 5 2 14 -9 379 228 375 243 -1 6 1 9 6
6 5 -3 54 19 108 49 54 30 115 60 134 66 101 33 247 132 242 163 -7 38 -35 55
-79 49 -46 -6 -59 -27 -37 -58 18 -24 0 -37 -33 -24 -21 8 -30 4 -55 -22 -37
-37 -70 -52 -120 -55 -30 -1 -40 3 -53 22 -17 27 -12 88 9 104 44 36 65 58 58
64 -4 4 -2 7 3 6 33 -7 68 4 107 34 24 19 63 39 86 45 23 7 46 20 52 30 5 11
29 31 54 47 32 20 53 46 80 96 21 37 41 70 47 73 5 4 9 10 9 16 0 11 -77 12
-84 0 -3 -4 -24 -11 -46 -14 -34 -4 -44 -1 -70 23 -22 21 -30 37 -30 62 0 19
-5 39 -10 46 -7 9 -7 9 2 2 17 -14 25 -12 33 7 8 22 19 97 19 141 1 17 4 32 9
32 4 0 7 8 7 18 0 10 9 24 20 32 11 8 20 20 20 28 0 7 7 15 15 18 8 4 15 14
15 24 0 11 5 22 11 25 6 4 8 14 4 23 -5 14 -3 14 13 -1 28 -26 36 -20 16 11
-14 21 -14 24 -2 14 9 -7 18 -9 20 -5 3 4 3 3 2 -4 -2 -7 1 -15 5 -18 9 -5 21
40 23 80 1 34 -13 99 -24 110 -8 7 -9 5 -5 -7 4 -10 2 -18 -3 -18 -6 0 -10 6
-10 13 0 18 -23 67 -32 67 -4 0 -3 -12 2 -26 6 -14 10 -33 9 -42 0 -14 -2 -13
-10 3 -6 12 -18 26 -28 32 -17 10 -18 8 -15 -28 4 -46 0 -48 -21 -11 l-16 27
4 -33 c3 -23 0 -31 -8 -28 -7 2 -17 0 -23 -6 -6 -6 -12 -6 -16 1 -12 19 -24
12 -19 -11 4 -22 4 -22 -10 -5 -14 17 -15 16 -20 -4 -3 -11 -10 -18 -16 -14
-6 3 -11 -1 -11 -9 0 -24 -20 -30 -35 -10 -8 11 -15 14 -15 9 0 -6 4 -15 9
-20 16 -17 25 -85 11 -85 -7 0 -9 8 -5 19 7 23 -13 39 -21 18 -3 -9 2 -29 10
-46 22 -42 20 -52 -3 -14 -13 20 -26 30 -38 29 -10 -2 -27 1 -37 7 -14 7 -10
-2 13 -32 18 -22 28 -41 23 -41 -6 0 -13 6 -15 13 -3 7 -6 5 -6 -5 -1 -9 7
-22 17 -27 9 -6 12 -11 7 -11 -16 0 -35 22 -35 41 0 9 -7 19 -15 22 -11 5 -13
-1 -9 -26 4 -24 3 -28 -5 -17 -10 13 -11 13 -11 0 0 -8 -9 3 -20 25 l-20 40 6
-45 c5 -37 4 -43 -7 -33 -18 18 -29 16 -29 -3 0 -14 -2 -15 -17 -3 -12 10 -15
10 -9 1 4 -7 1 -19 -8 -27 -13 -14 -16 -13 -30 6 -14 20 -15 18 -13 -32 2 -50
1 -54 -20 -52 -13 2 -23 -2 -23 -8 0 -6 -6 -9 -12 -7 -7 3 -20 -3 -30 -13 -19
-20 -12 -35 9 -18 16 14 16 5 3 -40 -7 -24 -6 -39 1 -48 8 -9 8 -13 0 -13 -6
0 -11 -9 -11 -19 0 -22 -20 -40 -20 -19 -1 21 -69 155 -71 138 -1 -8 -1 -18 0
-22 0 -5 -4 -8 -10 -8 -6 0 -9 7 -5 15 3 8 1 15 -3 15 -5 0 -18 15 -30 33 -11
17 -21 26 -21 19 0 -8 -5 -10 -12 -6 -7 5 -9 2 -6 -7 5 -12 -1 -14 -26 -11
-30 5 -31 4 -13 -15 16 -18 16 -21 2 -27 -9 -3 -18 0 -21 9 -3 8 -17 14 -30
13 -29 -3 -29 -5 -6 -31 16 -20 16 -20 -2 -14 -14 6 -17 3 -12 -8 7 -20 -3
-19 -21 2 -16 19 -16 18 3 -34 5 -15 4 -14 -9 2 -13 16 -16 17 -17 5 0 -9 5
-21 12 -28 7 -7 9 -12 5 -12 -3 0 -15 10 -27 22 -13 14 -20 17 -20 8 0 -7 8
-22 17 -32 16 -18 16 -18 0 -12 -12 4 -17 1 -18 -12 0 -15 -2 -15 -6 -4 -3 8
-11 18 -17 23 -8 5 -7 10 3 16 9 6 10 11 2 15 -6 4 -11 2 -11 -5 0 -8 -5 -7
-17 2 -16 13 -16 11 0 -14 20 -31 16 -64 -5 -51 -7 5 -5 -4 4 -19 10 -14 18
-34 18 -44 0 -14 -2 -15 -9 -4 -5 7 -14 10 -20 7 -6 -4 -11 0 -11 8 0 9 -5 16
-10 16 -6 0 -4 -13 5 -30 17 -33 28 -40 18 -12 -3 9 -3 14 1 11 4 -4 9 -18 11
-31 4 -22 2 -25 -21 -20 -14 2 -30 15 -36 28 -6 13 -16 24 -22 24 -6 0 -5 -5
2 -12 24 -24 12 -31 -13 -8 -14 13 -25 19 -25 14 0 -5 13 -18 30 -29 32 -22
47 -48 31 -53 -6 -2 -11 -13 -11 -25 0 -18 -5 -14 -25 18 -13 22 -25 36 -25
32 0 -4 7 -19 16 -32 23 -35 0 -32 -37 4 -33 34 -39 26 -9 -12 11 -14 20 -33
20 -44 0 -14 -7 -10 -33 18 -17 19 -27 28 -21 20 28 -38 35 -61 21 -61 -8 0
-20 13 -27 30 -7 16 -19 35 -28 42 -10 8 -8 0 7 -24 27 -45 15 -49 -28 -9 -29
27 -31 28 -25 8 6 -20 5 -21 -12 -7 -41 31 -84 81 -84 98 0 18 -47 68 -56 60
-2 -3 2 -11 11 -18 17 -15 21 -35 3 -24 -7 4 -8 3 -4 -5 4 -6 12 -9 17 -6 5 4
12 -2 16 -12 4 -10 24 -38 45 -62 21 -24 38 -48 38 -52 0 -13 -14 -11 -28 3
-9 9 -12 9 -12 1 0 -7 5 -15 10 -18 6 -3 10 -13 10 -22 0 -12 -7 -9 -25 11
-13 14 -29 26 -35 26 -7 0 -5 -7 4 -16 20 -20 20 -28 1 -20 -13 5 -13 1 1 -32
26 -60 27 -68 6 -44 -20 22 -39 31 -27 12 12 -20 -7 -9 -31 18 -14 15 -23 20
-20 12 3 -8 9 -23 12 -32 4 -10 10 -18 14 -18 4 0 10 -7 13 -14 4 -10 1 -13
-8 -10 -8 3 -17 14 -20 24 -6 20 -60 70 -75 70 -4 0 10 -35 31 -77 37 -76 37
-77 9 -43 -31 36 -38 35 -19 -3 6 -12 -6 -4 -26 18 -36 39 -37 39 -21 8 9 -17
20 -35 26 -38 15 -9 12 -22 -5 -22 -8 0 -17 9 -21 20 -4 12 -12 17 -24 14 -11
-3 -21 1 -24 9 -3 8 -10 14 -16 14 -6 0 -2 -12 7 -27 10 -15 17 -29 15 -32 -2
-3 1 -7 6 -9 6 -2 8 6 5 17 -3 12 -3 21 1 21 8 0 36 -57 35 -72 0 -7 -5 -2
-10 11 -8 19 -12 21 -24 11 -8 -7 -15 -8 -15 -4 0 11 -78 96 -105 114 -13 9
-12 5 5 -12 33 -34 60 -67 60 -74 0 -2 -6 -4 -12 -3 -7 1 -21 -1 -32 -6 -10
-4 -21 -4 -25 1 -3 5 -15 16 -26 24 -19 14 -20 14 -2 -6 9 -11 17 -24 17 -27
0 -10 -36 -3 -52 9 -36 29 -40 24 -9 -12 62 -70 120 -105 107 -63 -3 10 -9 29
-12 42 l-7 22 21 -23 c24 -27 19 -60 -12 -72 -11 -5 -15 -9 -8 -9 6 -1 12 -5
12 -11 0 -5 -8 -6 -17 -3 -15 6 -16 4 -5 -9 10 -13 10 -18 1 -24 -8 -4 -9 -3
-5 4 7 12 -40 29 -50 19 -3 -3 -19 9 -36 26 -33 35 -28 20 10 -32 20 -27 22
-35 11 -42 -20 -13 -30 -11 -67 11 -19 12 -41 20 -50 18 -10 -1 -23 1 -31 6
-10 7 -12 4 -6 -13 5 -17 2 -21 -17 -21 -16 0 -19 3 -10 9 9 5 4 8 -16 7 -28
-1 -29 -2 -15 -18 9 -10 13 -18 8 -18 -4 0 -1 -8 6 -17 12 -14 10 -14 -14 1
-15 10 -27 14 -27 8 0 -15 -50 -8 -60 9 -5 7 -12 10 -17 5 -4 -4 0 -12 10 -17
9 -6 17 -19 17 -29 0 -23 -10 -26 -28 -8 -7 7 -12 8 -12 2 0 -6 -23 -10 -54
-10 -59 1 -61 -4 -22 -59 24 -33 50 -86 48 -97 -1 -3 5 -9 13 -12 22 -8 19 20
-6 57 l-21 32 24 -26 c12 -15 34 -40 48 -58 14 -18 28 -27 33 -22 5 5 16 7 25
3 11 -4 14 -1 9 11 -5 14 -2 15 18 7 31 -12 31 -6 -1 50 l-26 45 29 -28 c16
-15 32 -25 35 -21 3 3 19 -12 34 -33 31 -43 51 -65 40 -45 -4 6 -2 12 4 12 9
0 70 -120 70 -138 0 -4 -12 10 -27 31 -14 20 -30 37 -35 37 -4 0 -8 7 -8 15 0
9 -9 19 -19 23 -11 4 -20 10 -20 15 -1 11 -15 10 -19 -2 -2 -6 5 -14 15 -18
24 -9 70 -59 85 -95 7 -15 20 -28 29 -28 21 0 44 -49 29 -64 -7 -7 -10 -5 -10
5 0 8 -7 24 -15 35 -11 13 -14 14 -13 4 2 -8 -4 -15 -12 -15 -10 0 -14 9 -13
28 2 31 -16 37 -24 7 -3 -11 -9 -17 -14 -14 -5 3 -9 0 -9 -6 0 -7 -8 -9 -22
-4 -19 6 -21 5 -11 -8 7 -8 9 -19 5 -24 -4 -4 2 -2 12 6 15 12 20 12 23 3 3
-7 9 -13 14 -13 6 0 7 5 4 10 -9 14 7 12 28 -4 9 -7 17 -19 17 -27 0 -10 -3
-10 -12 -1 -17 17 -33 15 -18 -3 13 -16 6 -35 -15 -35 -7 0 -15 -5 -17 -12 -3
-7 -13 -5 -31 7 -34 22 -35 38 -2 25 l26 -10 -28 35 c-15 19 -32 35 -37 35 -4
0 -6 7 -2 15 3 10 -1 15 -14 15 -10 0 -25 7 -34 15 -8 8 -20 15 -27 15 -8 0
-5 -7 7 -19 53 -52 87 -111 63 -111 -5 0 -10 5 -10 10 -1 6 -2 14 -3 19 0 6
-22 30 -48 54 -26 24 -44 47 -41 51 4 4 0 4 -10 0 -9 -3 -14 -10 -11 -15 3 -5
-2 -9 -10 -9 -9 0 -16 5 -16 10 0 6 -4 10 -10 10 -6 0 -6 -9 0 -26 12 -31 12
-34 1 -34 -5 0 -11 9 -14 20 -3 11 -11 20 -17 20 -7 0 -10 -7 -6 -15 4 -13 2
-13 -14 -5 -27 14 -34 12 -20 -5 21 -25 -2 -17 -31 11 -26 25 -27 25 -22 5 6
-24 -15 -29 -35 -9 -9 9 -12 9 -12 0 0 -21 -25 -2 -40 31 -13 29 -15 30 -18
10 -5 -31 -22 -29 -48 5 -12 15 -26 23 -31 19 -4 -5 0 -13 10 -18 18 -10 24
-39 8 -39 -11 0 -51 53 -51 67 0 5 -16 27 -35 49 -43 48 -46 33 -5 -27 16 -24
30 -50 30 -56 0 -23 -20 -14 -33 15 -6 15 -14 29 -18 32 -3 3 -9 14 -12 24 -4
10 -10 16 -14 13 -3 -4 2 -18 11 -31 28 -43 16 -77 -14 -41 -11 13 -15 13 -22
3 -6 -10 -10 -10 -18 2 -12 18 -13 31 -2 28 4 -2 8 1 9 6 1 5 7 13 15 17 11 8
11 10 -1 18 -11 7 -11 9 0 14 10 4 10 6 2 6 -7 1 -22 9 -33 18 -11 10 -29 26
-40 35 -14 13 -20 14 -20 5 0 -22 -35 -17 -45 6 -6 12 -14 22 -20 22 -5 0 -16
4 -22 8 -9 6 -11 3 -7 -7 3 -9 2 -16 -4 -16 -5 0 -12 7 -16 15 -6 16 -36 9
-36 -9 0 -6 9 -22 20 -36 27 -34 27 -59 0 -35 -11 10 -20 22 -20 27 0 13 -27
38 -33 31 -3 -3 1 -15 9 -28 13 -20 13 -23 -1 -28 -8 -4 -14 -3 -13 1 4 16
-14 52 -26 52 -12 0 -56 85 -56 109 0 5 -3 11 -7 13 -8 3 -36 50 -70 118 -10
19 -21 37 -24 40 -3 3 -16 26 -29 53 -13 26 -26 47 -29 47 -4 0 -12 14 -19 30
-8 17 -18 28 -23 25 -5 -4 -6 0 -3 8 4 13 -33 89 -103 212 -45 79 -47 88 -21
108 77 62 83 69 178 192 19 25 41 45 47 45 7 0 13 8 13 18 0 17 60 72 80 72 6
0 9 4 6 9 -3 5 1 12 10 15 25 10 62 7 70 -5 3 -6 20 -9 36 -7 16 3 31 1 34 -4
3 -4 11 -8 17 -8 7 1 2 9 -10 19 l-23 19 28 -1 c15 -1 30 -6 34 -12 4 -5 10
-6 14 -2 4 3 1 13 -6 22 -10 12 -9 16 4 21 9 3 16 12 16 20 0 7 8 19 18 26 10
8 18 27 19 48 1 19 4 51 7 70 3 19 7 69 10 111 3 41 10 89 17 105 6 16 13 46
14 67 1 21 8 43 16 48 8 5 10 9 5 9 -5 0 -3 6 3 13 6 8 12 22 15 33 9 42 19
64 29 64 6 0 7 3 4 6 -7 8 31 44 45 44 5 0 7 4 3 9 -3 6 3 15 14 20 14 8 20 7
24 -2 3 -7 28 -18 57 -25 63 -15 70 -15 70 -1 0 5 -5 7 -11 3 -7 -4 -10 -1 -7
7 2 7 19 17 37 21 17 5 29 13 26 18 -4 6 -2 10 4 10 10 0 9 25 -2 36 -13 13
-7 44 8 44 8 0 15 5 15 10 0 6 -4 10 -10 10 -19 0 -10 18 11 23 12 3 18 10 14
16 -3 6 -1 11 6 11 7 0 9 8 6 21 -4 15 0 23 12 26 14 4 18 15 17 61 0 37 3 56
11 55 6 -1 14 13 17 32 8 41 27 48 22 8 -2 -16 -1 -20 1 -11 2 10 10 15 19 11
8 -3 14 0 14 6 0 6 -5 11 -11 11 -5 0 -7 5 -4 10 4 6 11 8 16 5 5 -4 9 -1 9 5
0 7 7 9 16 6 9 -4 13 -2 8 5 -3 6 -17 9 -30 6 -20 -3 -22 -2 -13 9 6 8 17 14
25 14 7 0 16 5 20 12 5 7 2 9 -9 5 -11 -4 -14 -2 -11 8 3 7 16 16 29 19 17 4
22 11 18 22 -3 8 3 25 14 37 28 32 80 111 109 168 30 60 69 81 127 66 29 -8
37 -14 37 -33 0 -14 9 -28 21 -35 17 -9 19 -13 8 -20 -16 -10 -23 -9 94 -14
42 -2 93 -9 112 -15 30 -10 35 -16 35 -43 0 -38 7 -50 38 -66 46 -24 210 23
392 113 158 78 172 87 265 157 50 37 120 81 156 99 40 19 109 68 180 129 210
180 187 151 216 281 14 63 32 122 40 131 8 9 18 30 23 45 l8 29 1 -32 c1 -30
5 -33 65 -53 190 -63 282 -116 336 -195 66 -95 83 -183 51 -263 -27 -69 -27
-72 12 -72 132 -1 279 -94 330 -209 24 -54 34 -176 19 -220 -10 -27 -9 -31 7
-31 26 0 45 27 73 105 25 67 26 80 27 322 2 275 7 235 -75 585 -25 108 -16
103 -211 103 -217 1 -218 1 -244 28 -40 42 -43 67 -12 99 14 15 31 28 36 28 6
0 31 13 56 28 58 36 169 64 237 61 32 -2 59 3 68 10 12 10 16 10 16 2 0 -7 4
-9 10 -6 6 3 10 21 10 40 0 32 -2 34 -44 40 -25 4 -72 1 -112 -7 -59 -12 -84
-12 -174 -1 -58 8 -123 19 -145 26 -24 7 -104 12 -201 12 -180 0 -187 -2 -202
-72 -8 -36 -6 -43 20 -72 16 -18 28 -35 26 -37 -2 -2 -23 6 -46 17 -28 14 -83
25 -174 35 -185 19 -291 18 -390 -6 -72 -17 -84 -18 -91 -5 -4 8 -15 15 -22
15 -22 0 -18 28 4 35 10 3 23 5 27 3 20 -5 86 14 77 23 -18 18 -128 15 -165
-5 -24 -13 -44 -17 -62 -12 -26 6 -27 9 -21 46 6 36 4 41 -18 51 -14 6 -28 23
-32 37 -4 18 -9 22 -14 13 -6 -9 -13 -5 -25 13 -9 14 -24 26 -33 26 -14 0 -13
-4 6 -21 26 -24 14 -52 -13 -30 -9 8 -29 10 -53 6 -99 -17 -117 -44 -61 -96
l32 -29 -49 1 c-82 1 -442 43 -452 52 -2 2 8 12 22 21 21 14 25 24 25 61 l0
45 -40 0 c-36 0 -41 -3 -55 -37 -22 -51 -40 -127 -60 -248 -28 -162 -84 -276
-132 -267 -9 2 -8 -10 3 -45 12 -39 13 -84 8 -238 -4 -109 -11 -196 -17 -205
-30 -41 77 68 161 165 94 109 137 144 178 145 28 0 46 -23 42 -52 -3 -24 -9
-25 -63 -13 -30 6 -36 1 -155 -139 -93 -109 -130 -146 -147 -146 -13 0 -23 5
-23 11 0 8 -5 7 -15 -1 -9 -7 -13 -20 -10 -28 6 -17 -9 -33 -139 -142 -54 -45
-149 -132 -211 -194 -167 -166 -241 -236 -249 -236 -6 0 -24 -18 -87 -92 -13
-15 -61 -67 -105 -115 l-82 -88 9 50 c4 28 8 55 8 62 1 20 -56 26 -90 9 -18
-9 -40 -16 -49 -16 -31 0 -77 53 -84 96 -9 52 -10 53 -86 104 -164 111 -280
219 -306 285 -18 49 -9 99 25 129 17 16 25 15 122 -9 57 -14 120 -33 139 -41
56 -26 99 -33 133 -22 47 16 49 21 31 63 -23 55 -12 109 39 186 47 71 94 105
132 95 14 -4 44 -23 66 -43 27 -24 43 -33 50 -26 12 12 32 137 54 338 40 364
60 407 243 499 134 68 174 108 260 254 81 138 107 172 165 208 26 17 37 31 37
49 0 52 42 139 90 185 42 41 117 86 174 104 29 10 235 36 353 45 92 7 137 20
122 36 -3 2 -55 20 -115 38 -60 19 -176 60 -259 92 -219 85 -228 87 -365 95
-107 5 -132 10 -175 32 -55 29 -90 62 -129 125 -14 23 -35 47 -46 53 -26 14
-30 14 -632 5 -458 -7 -488 -9 -504 -26 -26 -28 -62 -23 -135 19 -82 49 -89
51 -116 41 -23 -8 -56 -85 -67 -154 -20 -128 -89 -372 -132 -463 -13 -29 -24
-56 -24 -60 0 -5 -11 -30 -24 -58 -13 -27 -27 -65 -31 -84 -9 -40 -60 -152
-88 -192 -10 -16 -26 -28 -36 -28 -19 0 -121 101 -121 119 0 6 -6 11 -14 11
-8 0 -18 5 -22 12 -4 7 -3 8 4 4 7 -4 12 -2 12 3 0 6 7 11 15 11 11 0 15 11
15 41 0 26 8 51 23 72 13 18 32 49 42 70 11 20 23 37 27 37 3 0 19 25 35 56
28 55 28 56 8 70 -11 8 -27 28 -35 43 -8 16 -23 39 -32 52 -9 13 -21 53 -26
87 -8 60 -8 66 15 92 13 16 57 47 98 69 103 57 122 85 146 218 10 59 23 149
28 200 9 84 12 96 49 145 79 107 221 211 282 206 34 -3 35 -4 32 -43 -5 -81
44 -211 85 -221 15 -4 42 6 80 29 127 76 219 119 278 128 33 5 153 13 266 18
114 5 233 14 265 20 49 9 189 28 414 56 19 2 130 14 245 25 116 11 237 25 270
30 33 6 116 13 185 16 135 6 233 23 347 60 198 64 462 133 576 149 l47 7 0
-75 c0 -41 -9 -128 -21 -194 -11 -65 -31 -181 -44 -258 -22 -131 -52 -282
-127 -650 -16 -82 -38 -192 -48 -244 -10 -51 -23 -97 -30 -101 -7 -4 -9 -13
-5 -19 4 -8 -1 -10 -17 -6 -12 3 -43 7 -68 10 -25 2 -70 9 -100 15 -30 6 -74
13 -97 16 -41 6 -41 6 -52 -32 -6 -22 -11 -44 -11 -49 0 -6 -9 -19 -21 -28
-16 -14 -24 -16 -35 -6 -7 6 -28 9 -46 7 -18 -3 -57 3 -88 14 -39 13 -64 16
-80 10 -24 -9 -80 5 -80 20 0 4 -6 8 -14 8 -14 0 -22 -27 -46 -159 -14 -79 -8
-87 75 -102 106 -19 132 -31 176 -75 48 -49 79 -56 94 -21 9 18 17 21 50 19
22 -2 46 -8 53 -14 7 -6 34 -11 60 -10 26 0 53 -4 59 -10 8 -6 31 -8 56 -4 33
5 47 3 57 -9 10 -12 16 -13 27 -3 11 9 16 9 23 -2 5 -9 5 -17 -1 -21 -33 -20
83 -53 227 -64 74 -6 97 -4 122 9 35 18 31 3 57 251 9 83 29 236 45 340 16
105 31 217 35 250 3 33 15 125 26 205 10 80 21 179 24 220 3 41 7 91 10 110 3
19 7 63 9 96 2 34 6 66 9 71 4 6 13 73 22 149 8 76 22 202 30 279 9 77 20 185
25 240 5 55 12 123 14 150 6 49 26 363 26 398 0 15 -13 17 -125 17 l-124 0 -6
-35 c-3 -19 -7 -52 -11 -72 -3 -21 -10 -53 -16 -71 -9 -31 -13 -33 -42 -28
-109 20 -251 27 -381 17 -327 -24 -383 -25 -443 -6 -32 9 -72 21 -89 27 -18 5
-38 6 -44 3 -19 -12 -139 5 -139 20 0 16 31 25 88 25 34 0 45 4 49 18 3 12 24
25 61 36 53 17 71 24 142 54 18 8 -90 11 -402 11 -331 1 -429 -2 -435 -11 -10
-17 -10 -68 0 -68 5 0 6 -4 3 -9 -13 -21 57 -32 194 -32 41 0 95 3 120 6 32 4
41 3 30 -4 -9 -7 -10 -11 -3 -11 6 0 11 -9 10 -20 -1 -12 -8 -20 -19 -20 -29
0 -21 -28 10 -33 15 -2 8 -3 -15 -1 -23 2 -45 -1 -48 -6 -3 -6 -15 -10 -25
-10 -10 0 -20 -4 -22 -9 -1 -5 -34 -12 -73 -15 -38 -3 -90 -9 -115 -14 -56 -9
-201 8 -224 27 -11 9 -20 10 -28 3 -13 -9 -249 -7 -276 3 -7 2 -32 2 -56 -1
-43 -6 -45 -8 -77 -78 -17 -39 -47 -101 -65 -138 -17 -36 -40 -92 -49 -124
-28 -96 -66 -157 -125 -197 -38 -26 -58 -22 -68 17 -14 51 -89 146 -127 162
-18 7 -63 38 -98 69 -36 30 -70 55 -75 55 -4 0 -31 16 -58 35 -27 19 -53 35
-57 35 -18 0 -114 49 -139 71 -14 13 -31 42 -36 64 -23 89 -32 164 -26 208 l7
47 -1207 0 c-747 0 -1206 -4 -1206 -9z m4387 -157 c-3 -3 -12 -4 -19 -1 -8 3
-5 6 6 6 11 1 17 -2 13 -5z m-1573 -1779 c111 -32 245 -97 299 -145 l42 -38
-1 -99 -1 -99 -49 -62 c-42 -53 -54 -62 -82 -62 -18 0 -47 6 -65 14 -105 44
-257 325 -257 475 0 49 0 49 114 16z m-1837 -349 c42 -21 98 -77 134 -134 23
-36 29 -58 29 -99 0 -58 -28 -144 -62 -189 -22 -28 -33 -31 -92 -25 -6 1 -1 8
10 17 18 15 18 15 -3 5 -31 -15 -63 -14 -63 3 0 8 5 16 12 18 8 3 12 25 12 61
0 31 3 57 7 57 5 0 4 10 -1 23 -5 12 -11 33 -14 47 -6 27 -50 80 -67 80 -6 0
-8 -3 -6 -7 2 -5 11 -25 21 -45 9 -20 21 -40 26 -43 13 -8 13 -75 0 -95 -5 -9
-5 -19 2 -27 7 -9 7 -17 -2 -28 -7 -8 -9 -15 -5 -15 4 0 3 -6 -2 -12 -6 -7
-11 -28 -11 -45 0 -18 -7 -42 -16 -54 -8 -12 -12 -27 -9 -34 4 -11 -14 -13
-84 -12 -48 0 -98 -3 -110 -7 -15 -5 -26 -2 -35 10 -7 9 -30 34 -50 54 -26 25
-38 46 -38 65 0 15 -5 45 -11 66 -10 32 -9 48 11 111 37 117 64 163 123 207
80 61 112 72 192 68 39 -2 84 -11 102 -21z m723 -176 c0 -5 -4 -10 -10 -10 -5
0 -10 5 -10 10 0 6 5 10 10 10 6 0 10 -4 10 -10z m3438 -76 c12 -4 22 -10 22
-15 0 -15 -47 -10 -60 6 -14 17 -3 20 38 9z m-373 -54 c3 -5 -3 -10 -14 -10
-12 0 -21 5 -21 10 0 6 6 10 14 10 8 0 18 -4 21 -10z m616 -513 c-13 -13 -26
-3 -16 12 3 6 11 8 17 5 6 -4 6 -10 -1 -17z m25 -144 c-5 -11 -2 -13 10 -9 10
4 14 1 12 -6 -7 -22 -53 -21 -73 2 -18 20 -18 21 1 34 23 17 59 3 50 -21z
m221 -27 c-7 -21 -52 -18 -72 4 -16 17 -17 23 -6 30 17 10 83 -19 78 -34z
m-357 -176 c18 -12 2 -12 -25 0 -13 6 -15 9 -5 9 8 0 22 -4 30 -9z m138 -30
c65 -9 135 -5 242 15 26 5 31 4 19 -4 -51 -33 -251 -36 -343 -5 -22 7 -29 12
-15 9 14 -3 58 -9 97 -15z m-1151 -582 c-3 -8 -6 -5 -6 6 -1 11 2 17 5 13 3
-3 4 -12 1 -19z m60 -44 c-3 -3 -12 -4 -19 -1 -8 3 -5 6 6 6 11 1 17 -2 13 -5z
m-1662 -674 c190 -14 315 -30 315 -40 0 -5 -28 -43 -62 -86 -72 -89 -97 -122
-186 -254 -93 -137 -84 -130 -165 -130 -79 0 -129 19 -146 56 -15 34 -13 122
4 219 8 44 15 105 15 136 0 42 5 63 21 83 24 30 11 29 204 16z m995 -4 c0 -3
-4 -8 -10 -11 -5 -3 -10 -1 -10 4 0 6 5 11 10 11 6 0 10 -2 10 -4z m2140 -681
c9 -10 9 -15 1 -15 -6 0 -11 5 -11 11 0 5 -4 7 -10 4 -5 -3 -10 -1 -10 4 0 16
16 13 30 -4z m-2605 -55 c4 -6 -12 -10 -42 -9 -36 0 -43 3 -28 9 28 12 63 12
70 0z m18 -27 c-7 -2 -19 -2 -25 0 -7 3 -2 5 12 5 14 0 19 -2 13 -5z m2333
-17 c11 -23 10 -24 -7 -13 -11 7 -19 17 -19 24 0 21 14 15 26 -11z m-16 -41
c8 -17 19 -33 25 -37 17 -12 -3 -20 -23 -9 -13 7 -18 17 -15 30 3 12 -4 25
-19 36 -20 15 -21 16 -3 13 10 -2 26 -17 35 -33z m-390 -65 c0 -5 -2 -10 -4
-10 -3 0 -8 5 -11 10 -3 6 -1 10 4 10 6 0 11 -4 11 -10z m445 -10 c3 -5 2 -10
-4 -10 -5 0 -13 5 -16 10 -3 6 -2 10 4 10 5 0 13 -4 16 -10z m-427 -35 c-3 -3
-9 2 -12 12 -6 14 -5 15 5 6 7 -7 10 -15 7 -18z m352 -17 c0 -16 25 -35 39
-30 9 3 11 0 6 -8 -6 -10 -2 -11 16 -7 18 5 28 1 37 -14 7 -11 19 -19 25 -16
7 2 21 -7 32 -20 11 -13 28 -33 38 -45 9 -12 17 -25 17 -31 0 -5 9 -7 19 -4
13 3 18 1 15 -8 -5 -13 -28 -13 -73 1 -21 6 -23 5 -18 -15 5 -22 -25 -66 -37
-54 -3 4 -6 1 -6 -5 0 -7 -5 -12 -11 -12 -6 0 -9 6 -6 14 3 8 -2 16 -14 19
-12 3 -19 0 -19 -8 0 -21 -36 -6 -51 21 -9 17 -18 22 -31 18 -10 -3 -18 -1
-18 5 0 6 -7 11 -16 11 -8 0 -12 5 -9 10 3 6 -3 10 -15 10 -12 0 -19 4 -15 9
3 5 -5 11 -17 13 -12 2 -23 10 -26 18 -4 12 -2 13 9 3 20 -20 34 -15 16 5 -9
9 -13 22 -9 27 8 12 82 14 82 3 0 -5 5 -8 10 -8 14 0 12 28 -2 33 -10 3 -10 7
0 20 8 9 10 22 6 29 -4 6 -8 22 -9 35 -1 21 1 21 17 6 10 -9 18 -20 18 -25z
m100 17 c11 -13 10 -14 -4 -9 -9 3 -16 10 -16 15 0 13 6 11 20 -6z m-149 -29
c4 -15 5 -34 2 -42 -6 -17 -26 -19 -20 -1 2 6 -3 20 -11 30 -15 16 -14 17 1
11 10 -3 17 -1 17 5 0 6 -7 11 -16 11 -8 0 -12 5 -9 11 11 17 28 5 36 -25z
m337 22 c-6 -17 -38 -23 -38 -8 0 6 5 8 10 5 6 -3 10 -1 10 4 0 6 5 11 11 11
6 0 9 -6 7 -12z m-368 -69 c0 -5 -4 -9 -10 -9 -5 0 -10 7 -10 16 0 8 5 12 10
9 6 -3 10 -10 10 -16z m387 -18 c1 -14 -3 -18 -13 -14 -15 6 -18 16 -7 26 11
12 19 8 20 -12z m-22 -31 c-3 -5 2 -10 12 -10 10 -1 29 -7 43 -16 24 -14 24
-14 -15 -8 -44 8 -74 29 -52 37 18 8 19 8 12 -3z m-45 -41 c0 -5 -7 -9 -15 -9
-15 0 -20 12 -9 23 8 8 24 -1 24 -14z m30 1 c0 -5 -5 -10 -11 -10 -5 0 -7 5
-4 10 3 6 8 10 11 10 2 0 4 -4 4 -10z m-3070 -20 c0 -5 -7 -10 -16 -10 -8 0
-12 5 -9 10 3 6 10 10 16 10 5 0 9 -4 9 -10z m2318 -25 c-3 -3 -9 2 -12 12 -6
14 -5 15 5 6 7 -7 10 -15 7 -18z m-2331 -1 c-3 -3 -12 -4 -19 -1 -8 3 -5 6 6
6 11 1 17 -2 13 -5z m-361 -39 c-11 -8 -25 -15 -30 -15 -6 1 0 7 14 15 32 19
40 18 16 0z m408 -4 c4 -5 -3 -7 -14 -4 -23 6 -26 13 -6 13 8 0 17 -4 20 -9z
m-129 -32 c22 -10 29 -16 16 -13 -37 10 -88 33 -71 33 8 0 33 -9 55 -20z
m2340 1 c3 -5 1 -10 -4 -10 -6 0 -11 5 -11 10 0 6 2 10 4 10 3 0 8 -4 11 -10z
m-2538 -22 c-3 -8 -6 -5 -6 6 -1 11 2 17 5 13 3 -3 4 -12 1 -19z m358 12 c8
-13 -5 -13 -25 0 -13 8 -13 10 2 10 9 0 20 -4 23 -10z m2242 -22 c-3 -7 -5 -2
-5 12 0 14 2 19 5 13 2 -7 2 -19 0 -25z m-2487 12 c8 -5 11 -10 5 -10 -5 0
-17 5 -25 10 -8 5 -10 10 -5 10 6 0 17 -5 25 -10z m115 -21 c15 -14 -7 -10
-35 7 l-25 15 25 -7 c14 -3 29 -10 35 -15z m142 -5 c-5 -5 -57 13 -57 20 0 3
14 0 31 -6 16 -6 28 -12 26 -14z m-567 11 c0 -2 -10 -9 -22 -15 -22 -11 -22
-10 -4 4 21 17 26 19 26 11z m220 -14 c0 -5 3 -18 7 -28 6 -16 5 -16 -10 -4
-19 15 -23 41 -7 41 6 0 10 -4 10 -9z m65 -11 c3 -5 2 -10 -4 -10 -5 0 -13 5
-16 10 -3 6 -2 10 4 10 5 0 13 -4 16 -10z m-347 -14 c-10 -7 -18 -16 -18 -19
0 -4 8 -4 18 0 13 5 11 1 -5 -14 -13 -11 -19 -23 -16 -27 4 -4 -1 -4 -11 0
-18 7 -18 8 0 21 18 13 8 19 -12 5 -12 -8 -28 -46 -16 -39 4 3 13 -1 20 -9 7
-8 9 -14 5 -15 -58 -4 -89 -11 -103 -24 -9 -8 -26 -15 -38 -15 -27 0 -75 -21
-85 -37 -4 -7 -15 -13 -23 -13 -8 0 -12 -4 -9 -10 3 -5 0 -7 -7 -5 -8 3 -41
-13 -73 -35 -45 -31 -52 -34 -25 -11 42 38 270 176 287 175 7 -1 11 2 10 7 -1
4 23 24 53 43 55 35 81 47 48 22z m427 4 c3 -6 -1 -7 -9 -4 -18 7 -21 14 -7
14 6 0 13 -4 16 -10z m-15 -20 c19 -11 31 -19 25 -19 -5 0 -26 8 -45 19 -19
11 -30 19 -25 19 6 0 26 -8 45 -19z m70 0 c13 -9 13 -10 0 -10 -8 0 -22 5 -30
10 -13 9 -13 10 0 10 8 0 22 -5 30 -10z m185 0 c3 -6 -1 -7 -9 -4 -18 7 -21
14 -7 14 6 0 13 -4 16 -10z m1825 -1 c0 -5 4 -8 9 -5 4 3 16 -3 26 -14 11 -12
13 -20 6 -20 -6 0 -14 7 -17 15 -4 8 -10 13 -14 10 -4 -3 -13 2 -20 10 -9 10
-9 15 -1 15 6 0 11 -5 11 -11z m-2105 -15 c20 -8 35 -17 32 -20 -3 -3 -22 4
-44 15 -46 24 -40 27 12 5z m2258 -46 c-7 -17 -9 -14 -9 16 0 27 2 32 9 20 5
-10 5 -24 0 -36z m-2317 17 c2 -32 -10 -32 -24 0 -10 21 -9 25 6 25 11 0 17
-9 18 -25z m2064 -14 c0 -8 -1 -12 -3 -10 -1 2 -11 15 -22 28 l-20 24 23 -14
c12 -8 22 -20 22 -28z m438 -7 c-4 -3 -12 5 -18 18 -12 22 -12 22 6 6 10 -10
15 -20 12 -24z m-2428 16 c18 -12 2 -12 -25 0 -13 6 -15 9 -5 9 8 0 22 -4 30
-9z m90 -10 c19 -11 31 -19 27 -20 -12 0 -77 28 -77 34 0 10 14 6 50 -14z
m2065 -1 c11 -17 -1 -21 -15 -4 -8 9 -8 15 -2 15 6 0 14 -5 17 -11z m174 -8
c12 -11 18 -22 13 -25 -6 -3 -17 5 -26 19 -20 30 -16 31 13 6z m41 -5 c5 -13
17 -30 27 -38 20 -15 56 -78 45 -78 -4 0 -18 19 -32 41 -19 31 -30 39 -47 36
-19 -3 -21 -1 -13 14 7 11 7 20 0 24 -13 8 -13 25 0 25 6 0 15 -11 20 -24z
m-2365 -14 c-3 -3 -11 0 -18 7 -9 10 -8 11 6 5 10 -3 15 -9 12 -12z m60 8 c3
-6 -1 -7 -9 -4 -18 7 -21 14 -7 14 6 0 13 -4 16 -10z m2909 -14 c-6 -16 -24
-23 -24 -8 0 10 22 33 27 28 2 -2 1 -11 -3 -20z m-958 -13 c-7 -7 -26 7 -26
19 0 6 6 6 15 -2 9 -7 13 -15 11 -17z m92 2 c-3 -3 -9 2 -12 12 -6 14 -5 15 5
6 7 -7 10 -15 7 -18z m132 9 c0 -2 -14 -11 -31 -19 -25 -13 -28 -19 -18 -31 6
-8 17 -14 23 -14 6 0 4 4 -4 10 -8 5 -11 12 -7 16 3 4 15 1 24 -7 16 -13 17
-12 4 4 -12 15 -9 21 12 18 4 0 7 4 7 10 0 8 6 7 16 -2 15 -12 16 -11 10 8
-11 34 25 23 51 -16 20 -29 23 -30 32 -14 8 14 11 15 12 3 1 -8 1 -18 0 -22 0
-4 10 -15 24 -24 27 -18 34 -37 10 -27 -13 4 -15 -1 -10 -26 3 -17 3 -31 -1
-31 -9 0 -34 28 -34 39 0 5 -4 12 -9 15 -5 4 -7 -3 -4 -14 7 -26 -6 -75 -17
-64 -4 5 -10 18 -13 29 -4 15 -5 14 -6 -7 0 -15 4 -30 9 -33 6 -3 10 -16 11
-28 1 -20 2 -20 8 3 7 24 8 23 20 -15 8 -22 19 -47 26 -55 31 -38 28 -100 -5
-100 -11 0 -22 -5 -25 -10 -4 -6 -10 -8 -15 -5 -4 3 -11 -5 -14 -18 -6 -22 -7
-22 -21 -3 -15 20 -15 20 -31 0 -8 -10 -13 -14 -10 -8 3 6 -1 20 -10 30 -14
18 -15 18 -9 -6 4 -14 9 -34 12 -44 4 -15 1 -18 -12 -13 -9 4 -21 7 -26 7 -5
0 -9 9 -9 19 0 11 -5 23 -10 26 -6 4 -7 11 -4 17 4 6 13 -2 21 -18 11 -25 13
-26 9 -5 -7 34 23 56 42 32 17 -20 7 0 -26 52 -13 22 -21 42 -17 45 4 4 10 0
15 -8 5 -8 15 -23 22 -33 12 -16 13 -15 13 7 0 13 -4 24 -10 23 -5 -1 -9 13
-8 32 1 25 -1 30 -9 20 -7 -10 -8 -7 -4 12 3 15 -1 40 -11 59 l-16 33 -12 -24
c-12 -22 -14 -21 -43 37 -17 32 -31 53 -32 46 0 -7 6 -23 14 -35 23 -34 58
-129 45 -121 -8 4 -9 -1 -5 -17 6 -20 5 -21 -4 -6 -6 9 -8 22 -5 27 3 5 1 19
-6 31 -9 17 -13 19 -20 8 -7 -12 -9 -12 -9 0 0 11 -3 11 -16 0 -14 -11 -19 -9
-35 11 l-20 25 16 -39 c20 -51 14 -56 -11 -8 -11 20 -26 37 -32 37 -14 0 -32
23 -32 40 1 6 7 1 15 -9 8 -11 18 -16 22 -12 5 4 -2 16 -14 26 l-22 18 24 0
c17 0 31 -11 46 -34 11 -19 25 -34 30 -34 6 0 -4 21 -22 47 -21 30 -27 44 -16
40 9 -3 18 -1 20 6 3 7 4 -1 4 -17 -2 -20 5 -33 23 -45 20 -13 23 -13 14 -1
-14 18 -24 81 -12 74 4 -3 8 0 8 7 0 8 4 8 15 -1 12 -10 15 -10 15 0 0 10 3
10 14 1 12 -10 13 -8 9 9 -3 12 -12 24 -19 27 -8 3 -14 9 -14 14 0 4 7 6 15 3
8 -4 15 -1 15 5 0 6 7 11 15 11 8 0 15 4 15 10 0 5 7 7 15 4 8 -4 15 -8 15
-10z m587 -6 c-3 -8 -6 -5 -6 6 -1 11 2 17 5 13 3 -3 4 -12 1 -19z m-2777 2
c8 -5 11 -10 5 -10 -5 0 -17 5 -25 10 -8 5 -10 10 -5 10 6 0 17 -5 25 -10z
m-90 -19 c12 -23 13 -31 3 -31 -5 0 -13 11 -20 25 -13 29 1 34 17 6z m2104
-13 c9 -17 14 -33 12 -36 -4 -4 -36 51 -36 63 0 13 10 3 24 -27z m396 5 c0
-10 2 -29 5 -43 3 -14 -1 -8 -8 13 -7 21 -16 35 -20 31 -4 -4 -7 -2 -7 4 0 7
7 12 15 12 8 0 15 -8 15 -17z m60 -22 c0 -5 -7 -14 -15 -21 -16 -14 -18 -10
-9 14 6 17 24 22 24 7z m-677 -31 c10 -10 8 -12 -7 -6 -18 6 -18 5 -1 -21 l18
-28 -22 20 c-35 31 -44 52 -20 50 10 -1 25 -7 32 -15z m181 4 c3 -8 2 -12 -4
-9 -6 3 -10 10 -10 16 0 14 7 11 14 -7z m-263 -35 c10 -20 10 -20 -15 -4 -14
10 -23 21 -20 26 7 12 21 3 35 -22z m-1741 -23 c0 -5 -7 -1 -15 10 -8 10 -14
24 -14 29 0 6 6 1 14 -9 8 -11 15 -24 15 -30z m1850 -27 c0 -6 -4 -7 -10 -4
-5 3 -10 11 -10 16 0 6 5 7 10 4 6 -3 10 -11 10 -16z m100 -14 c7 -9 8 -15 2
-15 -5 0 -12 7 -16 15 -3 8 -4 15 -2 15 2 0 9 -7 16 -15z m61 -39 c23 -50 26
-79 5 -51 -8 11 -12 23 -9 27 2 5 -5 21 -16 37 -23 32 -27 46 -10 35 6 -3 20
-25 30 -48z m-1970 2 c11 -21 11 -22 -4 -9 -10 7 -17 17 -17 22 0 15 9 10 21
-13z m1742 -2 c4 -10 1 -13 -8 -9 -8 3 -12 9 -9 14 7 12 11 11 17 -5z m68 -3
c13 -16 12 -17 -3 -4 -17 13 -22 21 -14 21 2 0 10 -8 17 -17z m353 -24 c4 -18
1 -29 -7 -32 -9 -3 -12 5 -9 30 5 39 7 39 16 2z m234 18 c14 0 15 -16 3 -36
-6 -9 -16 -11 -32 -5 -13 4 -30 7 -36 6 -7 -2 -13 2 -13 9 0 18 33 39 50 33 8
-4 21 -7 28 -7z m-714 -22 c9 -14 13 -25 9 -25 -12 1 -46 50 -35 50 6 0 17
-11 26 -25z m-3856 -40 c27 -29 33 -43 30 -73 -2 -29 -7 -37 -23 -37 -36 1
-83 23 -98 47 -17 26 -29 87 -20 101 12 20 78 -2 111 -38z m4007 35 c3 -5 1
-10 -4 -10 -6 0 -11 5 -11 10 0 6 2 10 4 10 3 0 8 -4 11 -10z m185 0 c0 -5 -4
-10 -10 -10 -5 0 -10 5 -10 10 0 6 5 10 10 10 6 0 10 -4 10 -10z m-520 -10 c0
-13 -11 -13 -30 0 -12 8 -11 10 8 10 12 0 22 -4 22 -10z m80 -44 c0 -5 -11 1
-25 14 -14 13 -25 27 -25 32 0 4 11 -2 25 -14 14 -12 25 -26 25 -32z m330 22
c0 -6 -7 -5 -15 2 -8 7 -15 17 -15 22 0 6 7 5 15 -2 8 -7 15 -17 15 -22z m44
-19 c20 -49 20 -63 0 -26 -8 15 -20 25 -26 21 -6 -4 -9 -1 -6 7 3 8 1 22 -4
31 -6 13 -5 16 6 12 8 -3 22 -23 30 -45z m-195 4 c13 -11 13 -13 0 -13 -9 0
-21 12 -28 28 -10 22 -10 25 1 12 7 -8 19 -21 27 -27z m-129 17 c0 -5 -2 -10
-4 -10 -3 0 -8 5 -11 10 -3 6 -1 10 4 10 6 0 11 -4 11 -10z m230 -5 c7 -8 8
-15 2 -15 -5 0 -15 7 -22 15 -7 8 -8 15 -2 15 5 0 15 -7 22 -15z m775 4 c11
-16 1 -19 -13 -3 -7 8 -8 14 -3 14 5 0 13 -5 16 -11z m-5005 -24 c16 -17 26
-21 31 -14 8 14 29 3 29 -16 0 -9 -6 -12 -15 -9 -19 8 -19 -5 1 -44 8 -18 13
-36 9 -42 -23 -37 -95 48 -95 112 0 45 8 47 40 13z m3884 9 c3 -8 2 -12 -4 -9
-6 3 -10 10 -10 16 0 14 7 11 14 -7z m201 6 c3 -5 2 -10 -4 -10 -5 0 -13 5
-16 10 -3 6 -2 10 4 10 5 0 13 -4 16 -10z m-258 -25 c5 -15 -34 -16 -46 -1 -7
9 -3 12 16 11 15 0 28 -5 30 -10z m680 -17 c-3 -7 -5 -2 -5 12 0 14 2 19 5 13
2 -7 2 -19 0 -25z m-237 -22 c0 -6 -7 -2 -15 8 -8 11 -15 25 -15 30 0 6 7 2
15 -8 8 -11 15 -25 15 -30z m-325 -51 c25 -44 26 -48 6 -31 -12 11 -29 35 -38
53 -8 18 -19 30 -24 27 -5 -3 0 -17 11 -31 22 -28 25 -43 10 -43 -6 0 -15 12
-20 26 -6 14 -14 23 -19 20 -12 -8 -1 35 13 50 12 13 15 10 61 -71z m50 75 c3
-5 1 -10 -4 -10 -6 0 -11 5 -11 10 0 6 2 10 4 10 3 0 8 -4 11 -10z m749 -60
l-5 -35 19 22 c11 12 22 19 26 16 3 -3 8 2 12 11 10 26 39 20 39 -9 0 -27 -10
-33 -19 -12 -3 6 -3 2 0 -10 4 -16 1 -23 -9 -23 -8 0 -24 -9 -37 -20 -45 -39
-88 -14 -56 32 9 12 16 38 16 58 0 26 3 31 10 20 5 -8 7 -31 4 -50z m-1094 25
c13 -14 18 -25 12 -25 -6 0 -17 8 -24 19 -7 10 -22 21 -33 24 -19 5 -19 5 1 6
11 0 31 -10 44 -24z m30 15 c0 -5 6 -10 13 -10 8 0 22 -9 32 -20 19 -21 7 -28
-13 -8 -7 7 -12 9 -12 5 0 -4 -9 2 -20 13 -22 22 -25 30 -10 30 6 0 10 -4 10
-10z m65 0 c3 -5 2 -10 -4 -10 -5 0 -13 5 -16 10 -3 6 -2 10 4 10 5 0 13 -4
16 -10z m651 -28 c-9 -8 -26 10 -26 26 1 15 2 15 15 -2 8 -11 13 -21 11 -24z
m149 28 c3 -5 1 -10 -4 -10 -6 0 -11 5 -11 10 0 6 2 10 4 10 3 0 8 -4 11 -10z
m-71 -15 c3 -8 1 -15 -4 -15 -6 0 -10 7 -10 15 0 8 2 15 4 15 2 0 6 -7 10 -15z
m391 5 c3 -5 1 -10 -4 -10 -6 0 -11 5 -11 10 0 6 2 10 4 10 3 0 8 -4 11 -10z
m365 -5 c-7 -9 -15 -13 -19 -10 -3 3 1 10 9 15 21 14 24 12 10 -5z m-1240 -28
c0 -5 -4 -5 -10 -2 -5 3 -10 14 -10 23 0 15 2 15 10 2 5 -8 10 -19 10 -23z
m-105 -64 c-2 -7 0 -13 6 -13 6 0 7 -5 3 -11 -8 -14 -40 39 -36 59 2 6 -4 12
-13 12 -8 0 -15 8 -15 18 1 12 9 8 31 -18 16 -19 27 -40 24 -47z m565 24 c0
-6 8 0 19 12 l19 21 16 -40 c9 -22 16 -43 16 -45 0 -10 -44 2 -48 13 -2 7 -14
12 -27 12 -24 0 -38 29 -28 57 5 14 8 13 20 -3 7 -10 13 -22 13 -27z m20 33
c0 -5 -4 -10 -10 -10 -5 0 -10 5 -10 10 0 6 5 10 10 10 6 0 10 -4 10 -10z
m517 -6 c2 -6 -6 -14 -19 -18 -19 -5 -20 -8 -8 -16 20 -13 4 -13 -20 0 -16 8
-18 8 -14 -5 4 -9 0 -15 -9 -15 -24 0 -30 19 -14 43 15 24 77 32 84 11z
m-1265 -19 c3 0 9 -3 13 -7 4 -3 0 -5 -9 -4 -9 1 -22 8 -29 16 -10 10 -9 11 3
4 8 -5 18 -9 22 -9z m229 -38 c12 -22 12 -22 -10 -3 -11 11 -21 23 -21 28 0
14 19 -1 31 -25z m67 12 c19 -30 11 -32 -17 -3 -15 15 -18 24 -9 24 7 0 19 -9
26 -21z m385 -13 c3 12 5 7 6 -13 1 -23 -4 -33 -14 -33 -8 0 -15 6 -15 13 0 6
-3 23 -6 37 l-5 25 14 -24 c14 -23 15 -24 20 -5z m-1334 -29 c1 -5 -3 -5 -9
-2 -5 3 -10 16 -9 28 0 21 1 21 9 2 5 -11 9 -24 9 -28z m721 33 c0 -5 -2 -10
-4 -10 -3 0 -8 5 -11 10 -3 6 -1 10 4 10 6 0 11 -4 11 -10z m211 -22 c11 -21
11 -22 -4 -9 -10 7 -17 17 -17 22 0 15 9 10 21 -13z m-55 -13 c9 -14 26 -28
38 -31 23 -5 54 -44 36 -44 -5 0 -10 4 -10 9 0 5 -11 11 -25 13 -18 4 -25 1
-25 -11 0 -9 -8 0 -19 19 -10 19 -16 41 -13 49 3 9 1 12 -6 7 -7 -4 -12 -2
-12 3 0 19 19 12 36 -14z m-894 -29 c10 -19 10 -20 -6 -7 -9 8 -22 24 -28 35
-10 19 -10 20 6 7 9 -8 22 -24 28 -35z m98 3 c0 -6 -4 -7 -10 -4 -5 3 -10 11
-10 16 0 6 5 7 10 4 6 -3 10 -11 10 -16z m1045 -70 c9 -17 14 -33 12 -36 -4
-3 -37 53 -37 64 0 11 12 -1 25 -28z m-99 4 c4 -10 8 -32 9 -49 l2 -30 -22 20
c-12 12 -20 24 -18 29 2 4 -3 7 -11 7 -9 0 -16 5 -16 10 0 17 18 11 40 -12 24
-26 27 -12 4 20 -8 12 -11 22 -6 22 6 0 13 -8 18 -17z m44 -44 c0 -10 -3 -19
-7 -19 -5 0 -8 11 -8 24 0 13 3 22 8 19 4 -2 7 -13 7 -24z m-120 2 c1 15 30
-47 30 -62 0 -6 -9 -5 -21 2 -15 7 -18 14 -11 21 8 8 6 16 -7 27 -9 9 -11 12
-4 7 9 -5 13 -4 13 5z m-310 -70 c0 -11 6 -21 13 -24 6 -2 9 -8 5 -12 -12 -12
-37 15 -31 32 4 11 2 14 -5 9 -7 -4 -12 -2 -12 3 0 6 7 11 15 11 8 0 15 -9 15
-19z m-32 -29 c2 -7 -2 -10 -12 -6 -9 3 -16 11 -16 16 0 13 23 5 28 -10z m97
-12 c3 -5 1 -10 -4 -10 -6 0 -11 5 -11 10 0 6 2 10 4 10 3 0 8 -4 11 -10z
m-81 -41 c14 -17 26 -36 25 -42 0 -8 -2 -8 -6 1 -2 6 -11 12 -19 12 -8 0 -14
6 -12 14 2 8 -6 22 -17 30 -11 9 -15 16 -8 16 6 0 23 -14 37 -31z m-33 -26
c-12 -20 -14 -14 -5 12 4 9 9 14 11 11 3 -2 0 -13 -6 -23z m641 2 c-4 -25 -19
-41 -28 -32 -3 2 -2 16 2 31 8 34 33 35 26 1z m-756 -12 c-7 -7 -26 7 -26 19
0 6 6 6 15 -2 9 -7 13 -15 11 -17z m88 -31 c2 -4 -4 -8 -14 -8 -10 0 -16 4
-14 8 3 4 9 8 14 8 5 0 11 -4 14 -8z m-49 -73 c11 -17 -1 -21 -15 -4 -8 9 -8
15 -2 15 6 0 14 -5 17 -11z m-269 -19 c14 -6 23 -14 20 -19 -7 -11 22 -36 31
-27 3 3 1 6 -5 6 -7 0 -12 4 -12 10 0 5 8 6 17 3 12 -5 15 -2 10 10 -15 39 60
11 88 -32 11 -17 26 -31 33 -31 9 0 7 8 -7 27 -12 14 -18 29 -15 32 4 3 8 2
11 -4 9 -24 23 -39 30 -32 4 4 2 16 -4 26 -10 16 -8 18 15 18 15 0 21 -2 15
-4 -16 -6 -17 -29 -1 -39 7 -4 8 -3 4 4 -10 17 0 15 30 -4 23 -16 24 -16 18 2
-4 11 -14 25 -22 32 -13 10 -13 12 -1 12 22 0 42 -17 45 -36 2 -9 15 -29 30
-43 l27 -26 -28 38 c-18 25 -23 37 -14 37 9 1 8 5 -5 15 -22 16 -16 31 9 22
18 -8 56 -67 49 -79 -3 -4 2 -8 10 -8 9 0 16 7 16 15 0 8 -4 15 -9 15 -14 0
-24 41 -13 52 6 6 17 -4 30 -26 12 -20 26 -36 31 -36 5 0 19 -18 30 -41 l22
-41 -30 7 c-27 6 -29 4 -24 -17 4 -22 4 -22 -11 -4 -20 25 -31 15 -16 -15 10
-18 10 -21 -2 -17 -11 5 -14 -5 -14 -42 1 -42 3 -47 18 -39 9 5 20 9 24 9 16
0 -13 -19 -91 -60 -71 -38 -102 -58 -166 -110 -19 -15 -18 -17 11 -85 19 -46
29 -87 30 -120 0 -47 -13 -86 -24 -74 -13 13 -266 530 -281 573 -9 28 -26 72
-39 98 -23 48 -23 48 -2 42 11 -4 27 -12 35 -18 12 -9 12 -8 3 9 -10 19 -7 21
29 22 22 1 52 -2 65 -7z m489 -250 c-3 -5 -14 -10 -23 -10 -15 0 -15 2 -2 10
20 13 33 13 25 0z"/>
<path d="M743 5908 c-41 -43 -51 -72 -54 -155 -2 -66 11 -113 31 -113 6 0 9
-5 7 -11 -1 -6 4 -14 11 -16 8 -3 10 1 6 11 -4 12 0 16 15 16 12 0 21 6 21 15
0 8 -6 15 -14 15 -18 0 -31 71 -18 97 13 26 35 137 31 157 -3 14 -10 11 -36
-16z"/>
<path d="M5651 2485 c0 -11 4 -27 9 -35 9 -13 10 -13 9 0 0 8 -4 24 -9 35 l-9
20 0 -20z"/>
<path d="M4880 2120 c-8 -5 -10 -10 -5 -10 6 0 17 5 25 10 8 5 11 10 5 10 -5
0 -17 -5 -25 -10z"/>
<path d="M4836 2027 c3 -10 9 -15 12 -12 3 3 0 11 -7 18 -10 9 -11 8 -5 -6z"/>
<path d="M4880 2023 c0 -13 5 -23 10 -23 13 0 13 11 0 30 -8 12 -10 11 -10 -7z"/>
<path d="M4867 1965 c9 -19 19 -33 21 -30 7 7 -19 65 -29 65 -5 0 -1 -16 8
-35z"/>
<path d="M4906 1853 c9 -38 14 -42 14 -10 0 14 -5 29 -10 32 -7 4 -8 -3 -4
-22z"/>
<path d="M4782 1710 c0 -14 2 -19 5 -12 2 6 2 18 0 25 -3 6 -5 1 -5 -13z"/>
<path d="M3686 1194 c-4 -10 2 -14 19 -14 30 0 33 16 6 23 -12 3 -22 -1 -25
-9z"/>
<path d="M3960 1060 c0 -5 5 -10 11 -10 5 0 7 5 4 10 -3 6 -8 10 -11 10 -2 0
-4 -4 -4 -10z"/>
<path d="M3972 924 c-7 -8 -8 -14 -3 -14 10 0 25 19 20 25 -2 1 -10 -3 -17
-11z"/>
<path d="M2508 8348 c7 -7 12 -22 12 -34 0 -34 36 -70 82 -82 124 -32 207 -40
355 -37 141 4 155 6 191 29 24 15 44 37 51 56 9 28 8 34 -14 56 l-24 24 -333
0 c-258 0 -329 -3 -320 -12z"/>
<path d="M7000 8349 c-36 -5 -121 -13 -190 -18 -81 -6 -146 -17 -185 -31 -69
-24 -273 -65 -391 -78 -59 -7 -98 -18 -150 -44 -38 -19 -81 -38 -96 -42 -42
-10 -66 -68 -79 -186 -6 -56 -8 -104 -5 -107 3 -4 6 6 6 20 0 33 7 33 65 6 55
-26 100 -78 120 -140 l16 -46 177 -6 c97 -3 231 -14 297 -24 158 -24 309 -22
535 5 460 56 487 59 835 87 99 8 297 26 440 39 143 14 298 28 345 31 47 4 91
11 98 17 13 12 17 258 5 431 l-6 97 -53 0 c-48 0 -55 -3 -68 -27 -8 -16 -27
-37 -42 -48 -87 -62 -109 -83 -114 -105 -8 -41 -37 -85 -64 -99 -27 -15 -104
-10 -204 11 -49 10 -60 19 -120 85 -36 41 -88 87 -114 103 -27 17 -54 41 -60
55 l-11 25 -461 -1 c-254 -1 -490 -5 -526 -10z"/>
<path d="M10582 8175 l2 -184 29 -12 c23 -10 48 -10 116 0 164 23 237 31 476
51 277 22 525 44 745 65 85 8 249 20 365 26 115 6 213 13 217 15 5 3 8 54 8
115 l0 109 -980 0 -979 0 1 -185z"/>
<path d="M3848 8123 c7 -3 16 -2 19 1 4 3 -2 6 -13 5 -11 0 -14 -3 -6 -6z"/>
<path d="M5893 7790 c0 -25 2 -35 4 -22 2 12 2 32 0 45 -2 12 -4 2 -4 -23z"/>
<path d="M12440 7783 c-14 -2 -86 -10 -160 -18 -159 -16 -241 -33 -255 -53
-13 -16 -118 -38 -295 -61 -41 -6 -104 -15 -140 -20 -62 -10 -371 -42 -529
-56 -40 -4 -84 -11 -98 -16 -13 -5 -59 -12 -101 -15 -66 -5 -83 -10 -117 -36
-113 -87 -129 -141 -127 -438 2 -271 9 -407 25 -438 21 -43 100 -67 145 -43 9
5 44 20 77 32 33 13 69 31 80 41 36 31 384 66 680 68 83 1 219 4 303 7 175 7
186 12 194 87 7 59 28 97 65 119 26 15 61 19 192 24 l161 6 0 409 0 408 -37
-1 c-21 -1 -49 -4 -63 -6z"/>
<path d="M5882 7700 c0 -14 2 -19 5 -12 2 6 2 18 0 25 -3 6 -5 1 -5 -13z"/>
<path d="M4410 5758 c-6 -24 -18 -66 -26 -95 -20 -72 -18 -92 10 -104 21 -10
33 -7 82 20 57 31 59 31 201 31 113 0 143 3 143 13 0 8 -28 41 -63 74 -60 58
-67 61 -123 67 -32 4 -90 13 -129 21 -38 9 -73 15 -77 15 -4 0 -12 -19 -18
-42z"/>
<path d="M12359 5576 c-4 -4 -547 -30 -1251 -61 -197 -9 -371 -21 -387 -26
-16 -6 -32 -18 -35 -26 -6 -14 1 -329 18 -920 4 -147 15 -178 84 -231 31 -24
44 -27 106 -27 39 0 98 8 131 16 33 9 107 22 165 28 121 14 183 28 175 41 -3
4 -1 10 5 12 5 1 15 27 22 57 16 64 39 84 126 104 49 11 65 12 79 2 34 -23
164 -38 215 -24 18 4 58 15 88 23 30 7 69 21 87 30 33 18 83 70 83 88 0 5 10
24 23 41 12 18 23 40 23 50 1 19 45 20 -536 -3 -159 -7 -291 -7 -350 -1 -52 5
-126 10 -165 11 -66 1 -72 3 -108 38 -60 57 -80 104 -75 174 7 93 78 171 174
192 112 24 313 37 634 42 490 6 506 7 565 35 44 21 63 24 168 23 l117 -1 0
158 0 159 -88 0 c-49 0 -91 -2 -93 -4z"/>
<path d="M4631 5519 c-13 -5 -21 -12 -18 -15 9 -9 68 7 61 17 -6 11 -12 11
-43 -2z"/>
<path d="M5298 5423 c7 -3 16 -2 19 1 4 3 -2 6 -13 5 -11 0 -14 -3 -6 -6z"/>
<path d="M12518 4810 c-10 -13 -18 -36 -18 -51 0 -14 -3 -29 -7 -33 -18 -17
-10 -71 16 -110 l26 -40 3 68 c2 37 2 95 0 129 l-3 62 -17 -25z"/>
<path d="M24 4593 c35 -204 38 -210 121 -223 51 -8 62 -8 72 6 10 14 5 26 -33
72 -25 30 -51 69 -59 86 -16 36 -42 66 -73 84 -32 18 -35 16 -28 -25z"/>
<path d="M6113 4226 c-114 -141 -153 -202 -153 -239 l0 -30 25 29 c14 16 47
58 72 94 25 36 51 70 58 75 19 16 88 153 83 165 -2 4 -40 -38 -85 -94z"/>
<path d="M3340 4091 c0 -17 18 -21 24 -6 3 9 0 15 -9 15 -8 0 -15 -4 -15 -9z"/>
<path d="M3389 4051 c-13 -11 -19 -20 -14 -20 14 0 50 28 43 34 -3 3 -16 -3
-29 -14z"/>
<path d="M3333 4023 c-13 -34 -48 -61 -66 -51 -19 10 -25 -6 -7 -17 6 -4 8
-10 5 -15 -3 -4 5 -6 17 -3 l23 4 -23 -13 c-17 -11 -20 -16 -10 -26 7 -7 18
-12 24 -12 7 0 16 -5 20 -12 4 -6 3 -8 -4 -4 -6 3 -14 1 -18 -6 -11 -18 -12
-48 -2 -42 5 4 7 12 4 20 -3 7 -1 16 4 19 6 4 10 1 10 -6 0 -7 14 0 30 16 28
27 43 64 20 50 -5 -3 -10 -1 -10 6 0 6 8 9 20 6 13 -3 20 0 20 9 0 8 -6 11
-17 7 -12 -5 -14 -3 -8 8 5 8 -1 5 -13 -5 -14 -12 -22 -14 -22 -7 0 7 -4 9
-10 6 -20 -13 -9 21 15 44 26 24 32 41 15 41 -6 0 -14 -8 -17 -17z m4 -118 c1
-11 -1 -11 -37 4 -25 11 -25 11 5 8 17 -1 31 -7 32 -12z"/>
<path d="M3260 4000 c0 -5 5 -10 10 -10 6 0 10 5 10 10 0 6 -4 10 -10 10 -5 0
-10 -4 -10 -10z"/>
<path d="M3870 3870 c0 -5 5 -10 11 -10 5 0 7 5 4 10 -3 6 -8 10 -11 10 -2 0
-4 -4 -4 -10z"/>
<path d="M5594 3751 c7 -11 46 -35 46 -28 0 3 -12 12 -26 22 -15 9 -23 12 -20
6z"/>
<path d="M3620 3506 c0 -2 9 -6 20 -9 11 -3 20 -1 20 4 0 5 -9 9 -20 9 -11 0
-20 -2 -20 -4z"/>
<path d="M3665 3460 c-3 -6 1 -7 9 -4 18 7 21 14 7 14 -6 0 -13 -4 -16 -10z"/>
<path d="M6070 3215 c0 -11 51 -107 55 -103 5 4 -44 108 -50 108 -3 0 -5 -2
-5 -5z"/>
<path d="M4113 3203 c9 -2 23 -2 30 0 6 3 -1 5 -18 5 -16 0 -22 -2 -12 -5z"/>
<path d="M4080 3180 c0 -5 7 -10 16 -10 8 0 12 5 9 10 -3 6 -10 10 -16 10 -5
0 -9 -4 -9 -10z"/>
<path d="M4045 3160 c-3 -6 1 -7 9 -4 18 7 21 14 7 14 -6 0 -13 -4 -16 -10z"/>
<path d="M3998 3143 c7 -3 16 -2 19 1 4 3 -2 6 -13 5 -11 0 -14 -3 -6 -6z"/>
<path d="M5345 3130 c-3 -4 6 -10 20 -12 14 -3 25 -2 25 2 0 11 -39 20 -45 10z"/>
<path d="M5076 3064 c3 -31 2 -30 39 -38 22 -5 26 -4 15 4 -22 14 6 13 30 -2
31 -19 34 -2 6 29 -14 15 -26 23 -26 17 0 -7 -11 -14 -25 -16 -16 -4 -25 -1
-25 8 0 7 -4 15 -9 18 -4 3 -7 -6 -5 -20z"/>
<path d="M5250 3085 c0 -3 9 -14 20 -25 13 -13 20 -15 20 -7 0 7 -5 18 -12 25
-12 12 -28 16 -28 7z"/>
<path d="M5214 3064 c3 -9 6 -21 6 -27 0 -9 2 -9 8 -1 4 6 12 13 19 15 7 2 1
9 -13 16 -22 10 -25 10 -20 -3z"/>
<path d="M5335 3040 c-7 -12 27 -22 37 -12 6 6 1 12 -11 15 -12 3 -23 2 -26
-3z"/>
<path d="M5060 3011 c11 -40 20 -52 31 -46 5 4 9 1 9 -4 0 -6 4 -11 10 -11 5
0 8 14 7 30 -2 24 -4 27 -13 15 -8 -11 -13 -12 -22 -3 -7 7 -12 18 -12 24 0 7
-4 15 -9 19 -6 3 -6 -6 -1 -24z"/>
<path d="M5176 2996 c4 -11 2 -22 -7 -28 -10 -7 -7 -8 11 -3 l25 6 -22 -17
c-27 -19 -29 -30 -9 -37 10 -4 13 -1 9 9 -12 32 13 11 31 -26 11 -22 23 -40
27 -40 5 0 0 14 -11 32 -11 19 -16 36 -11 42 6 7 -2 25 -20 46 -17 19 -27 27
-23 16z"/>
<path d="M4028 2993 c7 -3 16 -2 19 1 4 3 -2 6 -13 5 -11 0 -14 -3 -6 -6z"/>
<path d="M5127 2965 c3 -14 12 -25 20 -25 13 0 13 2 2 17 -8 9 -13 19 -11 22
2 3 -1 7 -6 9 -5 1 -7 -9 -5 -23z"/>
<path d="M5278 2956 c17 -36 32 -47 32 -23 0 8 -11 24 -24 36 l-24 23 16 -36z"/>
<path d="M4972 2947 c-6 -7 -8 -24 -5 -37 l6 -24 -27 27 c-15 15 -28 27 -30
27 -6 0 0 -64 8 -85 6 -14 -2 -10 -23 13 -40 42 -48 41 -22 -4 29 -48 27 -57
-9 -49 -19 4 -30 3 -30 -4 0 -6 -6 -10 -12 -8 -7 1 -12 -4 -10 -10 1 -7 -3
-13 -8 -13 -7 0 -7 -6 0 -20 12 -23 -2 -27 -20 -5 -7 8 -18 15 -24 15 -13 0
34 -39 48 -40 5 0 15 -8 22 -17 7 -10 15 -15 19 -11 4 4 -3 21 -15 37 -12 17
-17 31 -11 31 6 0 21 -18 33 -40 13 -22 27 -40 31 -40 5 0 5 6 0 13 -13 21
-12 37 3 37 9 0 12 -4 9 -10 -9 -14 8 -12 24 3 11 10 13 10 7 0 -8 -15 10 -18
19 -3 4 6 13 5 25 -2 10 -7 16 -16 14 -20 -3 -4 3 -8 12 -8 14 0 12 6 -11 30
-16 17 -24 30 -18 30 7 0 28 -20 49 -45 42 -52 59 -54 20 -2 l-27 35 33 11
c24 8 34 8 42 0 8 -9 6 -10 -6 -6 -12 4 -18 1 -18 -9 0 -8 5 -12 10 -9 6 4 22
-1 36 -10 14 -9 28 -14 32 -11 3 3 1 6 -4 6 -5 0 -11 10 -11 22 -1 13 -7 24
-13 26 -5 2 -10 11 -10 19 0 13 -3 13 -15 3 -12 -10 -15 -10 -15 4 0 9 -6 16
-12 17 -7 0 -2 5 12 10 17 7 26 7 28 0 2 -7 10 -5 19 4 21 22 33 18 33 -8 0
-29 7 -37 26 -30 13 5 12 8 -2 24 -9 11 -14 19 -10 19 4 0 -2 13 -13 29 -11
15 -18 31 -14 35 3 3 12 -3 20 -14 8 -11 19 -20 25 -20 7 0 2 9 -10 20 -12 12
-22 25 -22 30 0 5 -19 15 -42 21 -24 7 -49 17 -55 22 -9 6 -13 6 -13 -2 0 -6
5 -11 10 -11 21 0 9 -18 -17 -25 l-28 -7 40 -18 c27 -13 42 -15 46 -8 5 8 12
6 23 -5 20 -20 21 -31 1 -23 -8 3 -15 2 -15 -2 0 -4 -11 -8 -25 -8 -15 -1 -25
3 -25 12 0 8 -3 14 -7 14 -5 0 -21 11 -38 25 -16 14 -22 22 -13 19 13 -4 15
-1 11 15 -3 13 -1 21 7 21 7 0 10 -7 6 -15 -3 -8 -1 -15 4 -15 13 0 13 27 -1
35 -5 4 -20 -1 -31 -12 -20 -16 -21 -17 -15 0 8 20 4 22 -11 4z m-27 -49 c6
-4 2 -8 -7 -8 -10 0 -18 7 -18 17 0 9 3 12 8 7 4 -5 12 -12 17 -16z m-6 -137
c10 -6 3 -9 -22 -8 -22 1 -32 4 -24 9 16 10 29 10 46 -1z"/>
<path d="M5310 2865 c0 -8 4 -15 10 -15 5 0 7 7 4 15 -4 8 -8 15 -10 15 -2 0
-4 -7 -4 -15z"/>
<path d="M4855 2850 c3 -5 8 -10 11 -10 2 0 4 5 4 10 0 6 -5 10 -11 10 -5 0
-7 -4 -4 -10z"/>
<path d="M3355 2830 c3 -5 11 -10 16 -10 6 0 7 5 4 10 -3 6 -11 10 -16 10 -6
0 -7 -4 -4 -10z"/>
<path d="M5210 2805 c7 -8 17 -15 22 -15 6 0 5 7 -2 15 -7 8 -17 15 -22 15 -6
0 -5 -7 2 -15z"/>
<path d="M5140 2770 c0 -5 5 -10 11 -10 5 0 7 5 4 10 -3 6 -8 10 -11 10 -2 0
-4 -4 -4 -10z"/>
<path d="M5167 2728 c20 -23 35 -23 31 -1 -2 9 -13 17 -26 18 -21 2 -21 1 -5
-17z"/>
<path d="M4971 2668 c13 -26 24 -37 27 -29 2 7 0 16 -5 20 -6 3 -13 16 -17 29
-4 12 -12 22 -17 22 -5 0 0 -19 12 -42z"/>
<path d="M4861 2674 c0 -11 3 -14 6 -6 3 7 2 16 -1 19 -3 4 -6 -2 -5 -13z"/>
<path d="M4805 2660 c3 -5 8 -10 11 -10 2 0 4 5 4 10 0 6 -5 10 -11 10 -5 0
-7 -4 -4 -10z"/>
<path d="M5425 2640 c3 -5 8 -10 11 -10 2 0 4 5 4 10 0 6 -5 10 -11 10 -5 0
-7 -4 -4 -10z"/>
<path d="M4744 2629 c-3 -6 -1 -16 6 -22 10 -9 12 -8 7 5 -4 12 1 18 16 21
l22 4 -22 2 c-12 0 -25 -4 -29 -10z"/>
<path d="M4771 2587 c2 -1 13 -9 24 -17 19 -14 19 -14 6 3 -7 9 -18 17 -24 17
-6 0 -8 -1 -6 -3z"/>
<path d="M4530 2574 c0 -6 15 -23 33 -40 l32 -29 -30 35 c-16 19 -31 37 -32
39 -2 2 -3 0 -3 -5z"/>
<path d="M4614 2542 c16 -17 32 -30 34 -27 5 4 -12 22 -43 45 -11 8 -7 0 9
-18z"/>
<path d="M5012 2510 c7 -11 17 -20 22 -20 5 0 1 9 -9 20 -10 11 -20 20 -22 20
-2 0 2 -9 9 -20z"/>
<path d="M4522 2504 c18 -18 58 -27 58 -13 0 10 -9 15 -45 23 -28 7 -29 6 -13
-10z"/>
<path d="M4800 2510 c0 -5 5 -10 11 -10 5 0 7 5 4 10 -3 6 -8 10 -11 10 -2 0
-4 -4 -4 -10z"/>
<path d="M4516 2476 c3 -9 11 -16 17 -16 6 0 7 -3 4 -7 -4 -3 -16 2 -27 12
-11 10 -20 15 -20 11 0 -17 22 -46 42 -57 18 -10 20 -9 15 5 -14 35 14 3 34
-39 11 -24 27 -46 35 -49 14 -5 -22 67 -51 104 -7 8 -10 21 -7 29 3 9 0 11 -7
7 -7 -4 -19 -2 -27 5 -12 10 -13 9 -8 -5z"/>
<path d="M4686 2475 c4 -8 11 -15 16 -15 6 0 5 6 -2 15 -7 8 -14 15 -16 15 -2
0 -1 -7 2 -15z"/>
<path d="M4467 2449 c6 -22 5 -23 -12 -9 -15 12 -14 8 4 -18 13 -18 26 -31 29
-28 2 3 0 12 -7 20 -9 11 -9 15 1 19 10 3 9 9 -4 22 -16 17 -17 17 -11 -6z"/>
<path d="M4570 2456 c0 -2 7 -9 15 -16 9 -7 15 -8 15 -2 0 5 -7 12 -15 16 -8
3 -15 4 -15 2z"/>
<path d="M4374 2418 c17 -18 49 -53 70 -78 39 -45 39 -45 18 -7 -24 42 -19 47
15 15 l23 -21 -13 27 c-9 20 -18 26 -35 23 -17 -3 -22 -1 -17 10 3 10 1 13 -9
10 -23 -9 -38 14 -21 33 13 14 13 17 0 17 -8 0 -12 -4 -9 -9 3 -4 -2 -8 -10
-8 -8 0 -18 5 -21 10 -3 6 -10 10 -15 10 -4 0 6 -15 24 -32z"/>
<path d="M4715 2430 c3 -5 8 -10 11 -10 2 0 4 5 4 10 0 6 -5 10 -11 10 -5 0
-7 -4 -4 -10z"/>
<path d="M4490 2424 c0 -10 73 -74 78 -69 3 3 1 10 -5 16 -6 6 -9 18 -6 25 3
10 0 12 -10 9 -8 -4 -21 1 -30 9 -16 16 -27 20 -27 10z"/>
<path d="M4950 2400 c0 -5 5 -10 10 -10 6 0 10 5 10 10 0 6 -4 10 -10 10 -5 0
-10 -4 -10 -10z"/>
<path d="M4506 2365 c10 -8 24 -14 29 -14 6 0 1 6 -9 14 -11 8 -24 15 -30 15
-5 0 -1 -7 10 -15z"/>
<path d="M4305 2350 c10 -11 20 -20 22 -20 2 0 -1 9 -7 20 -6 11 -16 20 -22
20 -6 0 -3 -9 7 -20z"/>
<path d="M4392 2324 c18 -20 37 -42 41 -50 4 -8 13 -14 18 -14 6 0 -8 23 -31
50 -23 28 -46 50 -51 50 -5 0 5 -16 23 -36z"/>
<path d="M4650 2350 c0 -5 5 -10 11 -10 5 0 7 5 4 10 -3 6 -8 10 -11 10 -2 0
-4 -4 -4 -10z"/>
<path d="M4350 2336 c0 -2 8 -10 18 -17 15 -13 16 -12 3 4 -13 16 -21 21 -21
13z"/>
<path d="M4510 2300 c6 -11 13 -20 16 -20 2 0 0 9 -6 20 -6 11 -13 20 -16 20
-2 0 0 -9 6 -20z"/>
<path d="M4635 2310 c3 -5 8 -10 11 -10 2 0 4 5 4 10 0 6 -5 10 -11 10 -5 0
-7 -4 -4 -10z"/>
<path d="M4381 2260 c18 -25 34 -47 36 -49 2 -2 3 1 3 7 0 7 -16 29 -36 50
l-36 37 33 -45z"/>
<path d="M4531 2204 c0 -11 3 -14 6 -6 3 7 2 16 -1 19 -3 4 -6 -2 -5 -13z"/>
<path d="M4480 2169 c0 -5 5 -7 10 -4 6 3 10 8 10 11 0 2 -4 4 -10 4 -5 0 -10
-5 -10 -11z"/>
<path d="M4240 2150 c0 -5 5 -10 11 -10 5 0 7 5 4 10 -3 6 -8 10 -11 10 -2 0
-4 -4 -4 -10z"/>
<path d="M4285 2041 c-3 -5 6 -22 20 -38 21 -22 24 -23 16 -6 -6 12 -16 25
-21 28 -6 4 -8 11 -5 16 4 5 4 9 1 9 -3 0 -7 -4 -11 -9z"/>
<path d="M4210 1993 c0 -4 12 -19 25 -32 14 -13 25 -27 25 -32 0 -5 7 -9 15
-9 8 0 15 5 15 10 0 6 -7 10 -15 10 -8 0 -12 6 -9 13 2 7 -9 20 -26 30 -16 10
-30 15 -30 10z"/>
<path d="M4150 1981 c0 -5 7 -11 15 -15 8 -3 15 -1 15 3 0 5 -7 11 -15 15 -8
3 -15 1 -15 -3z"/>
<path d="M3860 1970 c0 -5 5 -10 11 -10 5 0 7 5 4 10 -3 6 -8 10 -11 10 -2 0
-4 -4 -4 -10z"/>
<path d="M4026 1937 c3 -10 9 -15 12 -12 3 3 0 11 -7 18 -10 9 -11 8 -5 -6z"/>
<path d="M3265 1760 c10 -11 20 -20 22 -20 2 0 -2 9 -9 20 -7 11 -17 20 -22
20 -5 0 -1 -9 9 -20z"/>
<path d="M3780 1760 c0 -5 5 -10 11 -10 5 0 7 5 4 10 -3 6 -8 10 -11 10 -2 0
-4 -4 -4 -10z"/>
<path d="M3602 1730 c7 -11 19 -22 28 -25 8 -4 4 5 -9 19 -29 31 -36 33 -19 6z"/>
<path d="M3656 1738 c4 -7 16 -25 26 -40 10 -14 18 -33 18 -42 0 -9 4 -16 8
-16 5 0 14 -12 21 -26 6 -15 14 -24 17 -21 9 9 -74 157 -89 157 -5 0 -5 -6 -1
-12z"/>
<path d="M3769 1726 c14 -15 26 -26 28 -26 9 0 -24 40 -37 45 -8 4 -4 -5 9
-19z"/>
<path d="M3860 1697 c0 -5 9 -20 20 -34 11 -14 20 -21 20 -15 0 12 -39 60 -40
49z"/>
<path d="M3923 1654 c17 -25 33 -40 36 -33 2 7 -1 15 -8 17 -6 2 -9 8 -5 13 3
5 1 9 -4 9 -5 0 -12 9 -15 20 -3 11 -12 20 -21 20 -12 0 -8 -11 17 -46z"/>
<path d="M3490 1682 c0 -12 19 -26 26 -19 2 2 -2 10 -11 17 -9 8 -15 8 -15 2z"/>
<path d="M3557 1665 c2 -8 11 -11 20 -8 8 3 19 0 25 -8 8 -12 9 -12 6 0 -3 8
-16 18 -30 22 -20 5 -25 4 -21 -6z"/>
<path d="M3640 1660 c6 -12 18 -24 26 -27 8 -3 14 -13 14 -23 0 -10 9 -28 21
-41 l20 -24 -7 25 c-4 14 -11 27 -15 28 -5 2 -9 17 -9 33 0 16 -3 28 -7 27 -5
-1 -18 4 -31 11 -22 12 -23 11 -12 -9z"/>
<path d="M3994 1645 c36 -19 45 -19 20 0 -10 8 -26 14 -34 15 -8 0 -2 -7 14
-15z"/>
<path d="M3880 1626 c0 -2 8 -10 18 -17 15 -13 16 -12 3 4 -13 16 -21 21 -21
13z"/>
<path d="M4050 1620 c0 -5 5 -10 11 -10 5 0 7 5 4 10 -3 6 -8 10 -11 10 -2 0
-4 -4 -4 -10z"/>
<path d="M3620 1600 c0 -5 7 -10 16 -10 8 0 12 5 9 10 -3 6 -10 10 -16 10 -5
0 -9 -4 -9 -10z"/>
<path d="M3836 1595 c4 -8 11 -15 16 -15 6 0 5 6 -2 15 -7 8 -14 15 -16 15 -2
0 -1 -7 2 -15z"/>
<path d="M3962 1580 c13 -20 28 -27 28 -12 0 4 -9 13 -20 20 -19 12 -20 11 -8
-8z"/>
<path d="M4100 1300 c0 -5 5 -10 11 -10 5 0 7 5 4 10 -3 6 -8 10 -11 10 -2 0
-4 -4 -4 -10z"/>
<path d="M4217 1220 c3 -11 9 -20 15 -20 5 0 4 9 -2 20 -6 11 -12 20 -14 20
-2 0 -2 -9 1 -20z"/>
<path d="M4330 1225 c0 -8 2 -15 4 -15 2 0 6 7 10 15 3 8 1 15 -4 15 -6 0 -10
-7 -10 -15z"/>
<path d="M4131 1184 c0 -11 3 -14 6 -6 3 7 2 16 -1 19 -3 4 -6 -2 -5 -13z"/>
</g>
</svg>
