<?xml version="1.0" standalone="no"?>
<!DOCTYPE svg PUBLIC "-//W3C//DTD SVG 20010904//EN"
 "http://www.w3.org/TR/2001/REC-SVG-20010904/DTD/svg10.dtd">
<svg version="1.0" xmlns="http://www.w3.org/2000/svg"
 width="500.000000pt" height="500.000000pt" viewBox="0 0 500.000000 500.000000"
 preserveAspectRatio="xMidYMid meet">

<g transform="translate(0.000000,500.000000) scale(0.100000,-0.100000)"
fill="#000000" stroke="none">
<path d="M1115 4491 c-83 -154 -100 -226 -79 -336 7 -33 13 -58 13 -55 1 3 4
25 7 50 8 68 48 150 73 150 14 0 22 -8 26 -27 12 -60 58 -189 85 -242 53 -101
85 -155 118 -203 17 -26 32 -51 32 -57 0 -17 -47 -13 -54 4 -6 17 -36 21 -36
5 0 -14 -32 -12 -53 5 -30 22 -217 204 -217 210 0 9 -83 119 -92 123 -4 2 -8
10 -8 17 0 7 -12 27 -26 44 -14 17 -23 31 -19 31 3 0 -3 13 -14 28 -25 36 -97
188 -105 225 -4 15 -10 27 -15 27 -12 0 -37 -78 -52 -160 -10 -58 -9 -74 10
-145 19 -68 58 -153 66 -143 1 2 -2 37 -8 79 -5 42 -7 92 -3 112 11 61 36 49
106 -55 35 -51 66 -95 69 -98 4 -3 34 -39 68 -80 34 -41 89 -101 122 -133 33
-32 70 -71 81 -88 16 -22 29 -29 54 -29 63 0 108 -28 180 -111 28 -32 31 -9 7
47 -25 56 -26 77 -6 94 13 11 18 10 30 -6 8 -10 15 -25 15 -32 0 -17 136 -152
186 -186 21 -14 49 -33 62 -42 13 -10 22 -12 22 -5 0 6 -4 11 -10 11 -5 0 -47
36 -94 80 -76 73 -196 231 -196 259 0 23 -16 10 -29 -24 -7 -19 -16 -35 -21
-35 -5 0 -29 29 -54 66 -48 68 -100 173 -143 284 -25 67 -72 266 -73 310 0 37
-13 53 -25 31z"/>
<path d="M3762 4433 c-14 -90 -35 -183 -52 -233 -34 -97 -64 -176 -69 -180 -3
-3 -16 -25 -29 -50 -28 -56 -60 -108 -88 -145 -25 -33 -54 -28 -54 9 0 14 -4
28 -10 31 -5 3 -10 1 -10 -6 0 -7 -11 -27 -25 -45 -14 -18 -25 -38 -25 -44 0
-6 -7 -13 -15 -16 -8 -4 -15 -12 -15 -19 0 -8 -38 -52 -83 -99 -46 -47 -80
-86 -75 -86 31 0 198 164 198 195 0 11 35 45 47 45 24 0 10 -100 -20 -147 -4
-7 -1 -15 8 -20 21 -12 3 -72 -30 -97 -14 -10 -25 -27 -25 -37 0 -23 16 -25
28 -3 5 10 26 17 58 19 27 2 50 4 52 4 2 1 -4 8 -13 17 -11 12 -13 20 -5 29 8
9 3 14 -22 19 -22 4 -29 9 -20 15 9 5 10 15 4 31 -7 20 -3 29 22 55 18 17 46
40 64 50 18 11 32 22 32 26 0 8 82 -1 92 -10 10 -8 -29 -91 -49 -107 -15 -10
-9 -11 32 -7 28 3 57 12 65 19 12 12 12 14 -3 14 -9 0 -21 9 -27 21 -12 21
-12 21 65 87 15 12 25 25 22 28 -2 3 -11 -1 -18 -8 -19 -18 -66 -38 -73 -31
-12 12 -5 21 77 105 83 86 141 151 196 223 17 22 34 45 39 50 4 6 25 36 47 68
40 62 59 77 77 59 15 -15 19 -91 7 -155 -5 -33 -8 -61 -6 -63 3 -3 19 23 36
56 45 87 52 192 21 308 -12 45 -25 82 -29 82 -4 0 -18 -26 -30 -57 -29 -74
-75 -166 -112 -223 -15 -25 -36 -58 -45 -75 -33 -58 -143 -191 -222 -267 -89
-85 -126 -113 -141 -104 -12 8 -3 42 15 57 8 6 14 16 14 22 0 5 -18 -11 -41
-37 -36 -41 -79 -61 -79 -37 0 5 27 52 60 104 33 53 60 99 60 103 0 4 16 38
35 75 19 38 35 73 35 79 0 6 9 30 19 53 11 23 21 58 23 77 5 45 29 50 56 13
21 -30 31 -64 39 -133 l6 -45 13 35 c15 42 17 130 4 188 -11 45 -79 192 -90
192 -3 0 -11 -35 -18 -77z"/>
<path d="M476 4209 c-21 -105 13 -233 81 -308 41 -45 58 -43 28 3 -9 13 -18
46 -22 75 -5 42 -3 52 12 57 21 8 68 -17 123 -66 59 -51 85 -70 100 -70 13 1
11 5 -8 19 -47 36 -175 166 -239 244 -35 42 -65 77 -66 77 -1 0 -5 -14 -9 -31z"/>
<path d="M4370 4184 c-60 -82 -254 -271 -326 -319 -32 -22 -61 -42 -64 -46
-22 -25 -193 -119 -255 -140 -15 -5 -12 -7 13 -8 31 -1 109 36 140 66 7 7 18
13 23 13 5 0 15 5 22 11 7 6 72 53 146 105 73 52 149 108 168 125 47 41 80 56
94 42 17 -17 13 -76 -9 -124 -11 -24 -18 -46 -15 -49 3 -3 24 17 47 44 70 80
103 220 72 305 l-12 33 -44 -58z"/>
<path d="M382 3848 c7 -82 46 -147 122 -206 47 -36 65 -27 26 13 -18 19 -31
37 -28 41 4 3 3 18 -2 34 -13 44 5 52 62 29 28 -11 57 -26 65 -34 8 -8 22 -15
31 -15 10 0 26 -6 37 -13 11 -8 44 -22 73 -32 28 -11 52 -22 52 -26 0 -4 12
-9 28 -11 15 -3 36 -8 47 -12 20 -8 20 -7 1 8 -11 9 -27 16 -36 16 -21 0 -277
130 -337 170 -24 17 -47 30 -51 30 -4 1 -23 14 -42 30 -19 17 -38 30 -43 30
-5 0 -7 -24 -5 -52z"/>
<path d="M4490 3883 c-14 -9 -31 -23 -38 -30 -7 -7 -17 -13 -21 -13 -4 0 -16
-8 -27 -18 -10 -9 -64 -40 -119 -67 -55 -28 -102 -53 -105 -56 -3 -3 -14 -9
-24 -12 -10 -4 -16 -10 -13 -13 6 -6 31 5 163 67 78 37 104 38 104 3 0 -35
-20 -70 -72 -126 -44 -45 56 9 106 59 46 45 71 99 80 171 7 57 3 61 -34 35z"/>
<path d="M850 3853 c30 -20 57 -40 58 -45 2 -4 8 -8 14 -8 5 0 24 -11 42 -25
18 -14 37 -25 41 -25 5 0 16 -6 24 -14 9 -8 41 -27 71 -42 30 -15 61 -35 70
-45 17 -20 110 -36 110 -20 0 6 -4 11 -9 11 -4 0 -19 23 -32 50 -13 28 -29 50
-36 50 -6 0 -13 4 -15 8 -6 15 -98 73 -98 62 0 -5 4 -10 8 -10 5 0 23 -12 40
-27 17 -16 43 -37 56 -48 27 -22 33 -41 14 -47 -11 -4 -78 23 -143 58 -119 64
-141 78 -148 90 -4 8 -13 14 -19 14 -5 0 -23 11 -40 25 -16 14 -37 25 -46 25
-9 0 8 -17 38 -37z"/>
<path d="M991 3676 c22 -19 111 -76 119 -76 5 0 10 -4 10 -10 0 -5 4 -10 10
-10 5 0 6 9 1 22 -5 14 -24 27 -54 37 -25 9 -52 22 -59 29 -6 6 -16 12 -22 12
-5 0 -7 -2 -5 -4z"/>
<path d="M3874 3661 c-17 -10 -45 -22 -63 -26 -30 -6 -51 -29 -38 -41 3 -3 28
7 56 23 29 15 61 32 71 38 20 10 27 25 13 25 -5 0 -22 -9 -39 -19z"/>
<path d="M4085 3655 c-16 -7 -49 -21 -73 -31 -23 -9 -40 -19 -38 -21 2 -3 18
3 35 11 16 9 38 16 48 16 10 0 29 9 43 20 29 23 26 24 -15 5z"/>
<path d="M1438 3613 c0 -5 -1 -15 -2 -23 -1 -8 -11 -16 -24 -18 -18 -3 -21 -8
-16 -24 4 -13 1 -24 -7 -29 -10 -6 -7 -9 11 -10 47 -1 75 -9 86 -24 6 -8 16
-15 23 -15 21 0 11 30 -18 56 -26 23 -47 66 -43 87 1 4 0 7 -3 7 -3 0 -6 -3
-7 -7z"/>
<path d="M371 3594 c1 -23 47 -99 57 -96 7 1 12 -5 12 -14 0 -22 43 -59 105
-90 l50 -26 -25 28 c-14 16 -31 34 -37 42 -16 16 -17 58 -2 67 6 4 43 0 82 -8
192 -41 518 -74 504 -50 -11 17 82 36 154 31 38 -3 69 -1 69 3 0 5 -17 9 -39
9 -45 0 -94 20 -135 54 -16 14 -36 21 -47 19 -17 -5 -72 5 -125 23 -16 5 -16
4 -4 -5 8 -6 41 -18 73 -27 74 -22 77 -44 5 -45 l-53 -1 44 -9 c53 -10 67 -22
47 -38 -12 -10 -43 -10 -147 -1 -73 6 -136 13 -140 16 -5 2 -36 9 -71 13 -85
12 -205 45 -281 77 -81 33 -97 38 -96 28z"/>
<path d="M3927 3593 c-26 -7 -74 -33 -61 -33 15 0 84 29 84 35 0 3 -1 4 -2 4
-2 -1 -11 -3 -21 -6z"/>
<path d="M4465 3574 c-33 -14 -102 -36 -154 -50 -52 -14 -97 -27 -100 -29 -4
-2 -35 -6 -71 -10 -35 -3 -68 -8 -71 -11 -15 -9 -223 -25 -250 -19 -15 4 -30
13 -33 22 -4 11 -2 14 9 10 8 -4 17 -2 20 3 4 6 18 10 33 10 15 0 33 4 40 9 7
4 -11 6 -41 3 -43 -3 -55 -1 -60 12 -5 11 2 17 28 22 70 13 27 22 -66 15 -3
-1 -11 -13 -18 -27 -6 -15 -14 -24 -18 -21 -3 4 -15 1 -27 -5 -11 -7 -37 -15
-56 -19 -29 -6 -25 -7 27 -8 66 -1 101 -11 124 -34 23 -22 315 6 512 50 38 8
75 12 83 9 22 -9 17 -39 -17 -84 l-30 -41 32 11 c18 6 40 18 49 27 9 9 28 24
42 34 25 17 82 120 76 137 -2 5 -30 -3 -63 -16z"/>
<path d="M3153 3515 c-12 -12 -28 -25 -35 -28 -7 -2 -9 -8 -5 -13 4 -4 24 9
45 29 20 20 32 37 27 36 -6 0 -20 -11 -32 -24z"/>
<path d="M3575 3480 c-3 -5 -1 -10 4 -10 6 0 11 5 11 10 0 6 -2 10 -4 10 -3 0
-8 -4 -11 -10z"/>
<path d="M1806 3455 c4 -11 7 -32 7 -47 0 -16 4 -28 8 -28 15 0 10 55 -7 76
-15 19 -16 19 -8 -1z"/>
<path d="M3087 3453 c-13 -12 -7 -90 10 -143 13 -41 14 -53 4 -60 -10 -5 -11
-28 -6 -91 9 -110 -7 -199 -47 -264 -38 -60 -146 -138 -186 -133 -25 3 -27 6
-24 46 3 34 -2 51 -23 83 -48 68 -61 51 -38 -51 16 -73 13 -88 -26 -132 -32
-34 -36 -44 -25 -53 8 -5 11 -19 8 -30 -6 -25 -63 -65 -90 -65 -25 0 -66 28
-59 40 8 14 -23 27 -95 40 -36 7 -80 21 -98 31 -18 11 -39 19 -46 19 -7 0 -25
9 -39 20 -35 28 -44 25 -11 -3 27 -24 26 -47 -1 -47 -31 0 -113 67 -160 130
-59 81 -80 221 -50 340 l6 25 -14 -25 c-8 -14 -22 -59 -30 -100 -14 -68 -14
-82 0 -145 22 -98 22 -119 -1 -123 -19 -4 -86 27 -86 40 0 5 -6 8 -12 8 -17 1
-48 28 -79 70 -47 64 -54 96 -54 237 0 72 -3 129 -7 127 -14 -9 -14 23 -2 60
16 45 18 64 5 50 -8 -8 -33 -86 -61 -194 -16 -60 -12 -104 10 -118 13 -8 20
-23 20 -43 0 -17 16 -64 36 -104 29 -61 51 -89 121 -154 79 -72 84 -80 66 -89
-16 -9 -34 -5 -89 22 -38 18 -84 48 -101 66 -30 31 -33 32 -33 12 0 -11 6 -25
13 -29 16 -10 37 -49 37 -68 0 -29 -32 -15 -83 38 -63 63 -102 136 -117 219
-7 35 -19 67 -28 74 -19 14 -22 66 -9 158 6 37 5 56 -1 52 -5 -3 -12 6 -15 21
-3 17 5 46 24 84 16 31 29 60 29 64 0 4 7 13 16 20 15 10 10 14 -32 24 -27 7
-51 17 -54 22 -7 10 -70 -11 -70 -23 0 -4 23 -8 50 -8 37 0 50 -4 50 -14 0 -8
-4 -17 -9 -21 -6 -3 -6 -18 -1 -36 7 -24 5 -34 -11 -50 -10 -10 -28 -19 -38
-19 -27 0 -45 -53 -22 -67 14 -9 9 -15 -33 -41 -27 -17 -68 -34 -92 -38 -35
-5 -44 -10 -44 -27 0 -18 2 -19 18 -5 20 17 97 38 142 38 32 0 53 -26 31 -39
-7 -4 -13 -25 -14 -47 -2 -29 -8 -41 -25 -49 -34 -15 -26 -24 14 -15 68 16 84
-9 34 -53 -35 -31 -38 -47 -11 -47 11 0 22 -4 25 -8 9 -16 -24 -50 -54 -57
-16 -4 -32 -11 -35 -16 -7 -10 -144 -13 -169 -3 -47 18 16 107 104 148 l54 25
-72 0 c-56 0 -72 -4 -72 -15 0 -8 -8 -14 -17 -14 -26 -1 -58 -27 -41 -33 21
-7 -2 -25 -53 -41 l-44 -14 52 -1 c57 -1 71 -11 48 -34 -21 -21 -19 -30 4 -22
14 4 23 0 30 -14 9 -17 6 -21 -29 -35 -22 -9 -40 -18 -40 -21 0 -3 24 -2 54 1
60 7 76 -4 46 -31 -15 -14 -17 -21 -9 -31 19 -23 3 -40 -63 -72 -70 -34 -133
-47 -176 -37 -24 5 -28 10 -24 30 5 27 89 96 137 113 l30 10 -30 0 c-16 0 -43
-3 -60 -7 -47 -10 -135 5 -150 26 -7 10 -17 15 -20 11 -10 -9 20 -38 38 -38 8
0 20 -7 27 -15 7 -8 19 -15 26 -15 25 0 15 -37 -16 -63 -16 -14 -30 -30 -30
-36 0 -6 21 -16 46 -22 25 -7 48 -18 51 -26 4 -9 14 -12 28 -9 28 7 40 -16 22
-44 -20 -34 -77 -54 -161 -58 -52 -3 -74 -7 -65 -13 8 -5 74 -6 152 -3 135 7
138 6 144 -14 3 -12 9 -19 14 -16 14 8 11 -52 -4 -63 -20 -16 -117 -43 -153
-43 -20 0 -34 5 -34 13 0 13 -20 -12 -20 -25 0 -12 85 -9 137 5 37 10 47 10
50 0 3 -8 22 -13 49 -13 30 0 46 -5 50 -14 3 -8 11 -13 19 -10 22 9 26 -26 5
-54 -25 -34 -122 -61 -146 -41 -11 9 -14 7 -14 -11 0 -21 3 -22 37 -16 103 19
113 19 113 3 0 -9 9 -21 20 -27 16 -9 18 -15 10 -36 -19 -48 -14 -54 37 -51
41 2 49 -1 58 -20 12 -27 33 -29 101 -8 45 13 50 13 62 -2 6 -9 12 -31 12 -48
0 -36 27 -66 50 -56 31 12 90 64 90 78 0 8 4 12 8 9 9 -5 31 17 59 61 27 42
105 123 118 123 10 0 9 14 -1 63 -17 79 -18 224 -1 256 23 46 32 33 44 -65 12
-102 13 -104 36 -108 8 -1 22 -10 33 -20 24 -24 30 -6 10 33 -9 16 -16 32 -16
36 0 9 49 5 55 -5 3 -5 14 -10 25 -10 30 0 33 -29 4 -40 -14 -6 -29 -10 -32
-10 -4 0 -13 -14 -19 -31 -11 -27 -14 -29 -33 -19 -33 17 -36 5 -12 -44 29
-57 28 -69 -8 -83 -16 -6 -30 -19 -30 -28 0 -21 28 -75 40 -75 5 0 23 -13 41
-29 25 -24 30 -34 25 -55 -3 -14 -11 -26 -16 -26 -6 0 -10 -7 -10 -15 0 -9 -9
-15 -24 -15 -19 0 -26 7 -31 31 -5 21 -11 29 -22 25 -8 -3 -17 -6 -19 -6 -2 0
-4 -11 -4 -25 0 -16 6 -25 15 -25 24 0 18 -45 -11 -79 -14 -17 -24 -31 -22
-31 15 0 106 52 119 68 10 11 24 24 32 28 8 5 26 28 40 51 18 29 32 41 42 37
18 -7 18 -5 -1 -75 -18 -65 -52 -104 -110 -124 l-39 -14 62 -1 c76 0 92 6 86
31 -3 12 1 21 11 25 20 8 30 0 24 -18 -3 -7 -6 -17 -7 -22 -1 -6 84 -11 201
-12 112 -1 258 -5 326 -9 67 -4 122 -4 122 -2 0 3 -17 11 -37 17 -49 16 -90
54 -114 108 -37 80 -7 135 33 62 29 -53 83 -101 141 -125 38 -16 48 -8 22 19
-17 17 -20 62 -5 71 15 9 12 42 -4 48 -10 4 -18 -5 -25 -24 -14 -40 -40 -35
-66 13 l-19 36 27 28 c15 15 27 23 27 18 0 -13 48 60 50 77 4 28 -1 37 -25 43
-29 7 -33 36 -12 76 8 14 16 35 19 48 5 19 4 20 -14 11 -11 -6 -26 -8 -34 -5
-18 7 -18 36 0 36 7 0 19 6 26 14 6 8 17 13 24 10 15 -6 46 98 46 155 0 44 11
58 29 37 13 -15 17 -230 6 -290 -7 -37 -6 -41 37 -80 25 -23 63 -68 85 -101
43 -64 75 -95 130 -127 l33 -20 20 23 c11 13 20 38 20 54 1 55 12 62 68 42 70
-24 100 -23 104 6 3 20 8 22 52 19 l48 -2 -5 42 c-6 39 -3 45 24 67 29 23 33
23 84 11 52 -12 75 -9 75 12 0 5 -8 7 -17 4 -9 -4 -41 -1 -70 5 -54 12 -93 44
-93 75 0 20 53 44 98 44 21 0 42 4 48 10 5 5 24 6 49 0 45 -11 119 -13 128 -4
3 3 3 12 0 20 -4 10 -9 11 -23 1 -15 -9 -35 -7 -95 8 -41 10 -81 25 -87 33
-16 18 -19 42 -7 42 6 0 8 4 5 9 -3 4 3 16 14 26 17 15 36 17 156 14 86 -3
138 0 141 6 2 6 -17 9 -48 6 -69 -4 -139 15 -166 46 -26 29 -26 32 -14 52 6
10 13 10 29 2 16 -9 21 -7 25 8 3 11 17 20 40 24 19 3 45 15 56 26 21 21 21
21 1 21 -24 0 -60 34 -60 56 0 9 9 18 20 21 11 3 20 11 20 19 0 10 -17 13 -69
13 -64 -1 -148 23 -188 54 -22 16 -16 47 9 47 17 0 19 3 10 12 -26 26 -13 38
42 38 77 0 173 -35 207 -74 13 -16 17 -17 22 -4 3 10 -4 24 -19 37 -13 11 -24
25 -24 30 0 4 -35 11 -78 13 -101 7 -152 28 -152 62 0 19 -5 26 -19 26 -10 0
-21 7 -25 15 -4 11 -23 15 -78 15 l-73 0 40 -19 c44 -21 117 -84 133 -117 9
-16 7 -22 -9 -32 -28 -18 -146 -15 -199 5 -67 26 -99 73 -49 73 24 0 25 22 1
43 -22 20 -42 22 -42 5 0 -6 -2 -9 -5 -6 -3 2 1 16 8 31 8 19 20 27 39 27 25
0 26 2 22 42 -2 23 -8 46 -14 52 -5 5 -10 20 -10 33 0 20 5 23 43 23 23 -1 66
-9 95 -19 37 -13 52 -14 52 -6 0 7 -30 20 -67 30 -83 23 -104 42 -96 88 4 30
2 36 -16 42 -35 11 -59 43 -53 70 2 14 9 25 16 25 6 0 3 5 -6 11 -32 18 -21
39 20 39 50 0 60 11 25 25 -22 10 -34 9 -55 -1 -15 -8 -34 -14 -42 -14 -28 0
-27 -19 5 -82 39 -77 46 -116 25 -131 -13 -10 -14 -19 -6 -47 5 -19 10 -63 10
-97 0 -52 -3 -64 -20 -73 -11 -6 -20 -20 -20 -32 0 -46 -34 -152 -61 -193 -47
-69 -127 -130 -146 -111 -9 8 16 62 38 82 10 9 19 26 19 36 0 16 -6 14 -32
-14 -18 -19 -61 -51 -96 -72 -55 -33 -68 -37 -95 -29 l-31 8 37 37 c20 21 37
35 37 32 0 -3 6 1 14 8 8 7 12 16 9 21 -2 4 3 7 11 7 8 0 24 12 35 28 12 15
26 33 32 40 25 29 79 154 79 181 0 21 6 32 20 36 19 6 20 12 14 68 -4 34 -10
67 -14 72 -5 6 -11 28 -15 50 -4 22 -17 63 -27 90 -14 35 -18 63 -14 93 6 43
5 47 -7 35z m329 -683 c45 -24 95 -59 116 -82 25 -28 42 -39 53 -34 21 8 14
31 -9 30 -23 -2 -20 9 9 34 14 12 25 17 25 12 0 -6 7 -10 15 -10 14 0 56 -16
125 -49 48 -22 110 -80 110 -102 0 -26 -40 -34 -107 -20 -56 11 -163 65 -163
82 0 16 -26 10 -44 -10 -16 -17 -15 -19 16 -30 73 -28 151 -85 189 -139 19
-28 20 -35 8 -43 -50 -32 -235 38 -269 102 -14 26 -4 41 23 34 21 -5 20 -4 -1
7 -18 9 -22 17 -17 35 5 21 2 23 -39 23 -64 0 -166 57 -166 93 0 17 27 30 43
20 7 -3 -1 6 -16 20 -23 22 -26 30 -17 47 15 28 26 26 116 -20z m-1800 19 c3
-6 -6 -24 -22 -40 -26 -27 -27 -29 -6 -29 34 0 38 -21 8 -47 -15 -12 -34 -23
-42 -23 -8 0 -14 -3 -14 -7 0 -16 -55 -33 -104 -33 -45 0 -48 -1 -30 -14 10
-8 16 -18 12 -21 -4 -4 -3 -16 3 -27 7 -14 5 -26 -8 -48 -9 -17 -22 -30 -28
-30 -6 0 -22 -8 -35 -17 -32 -23 -126 -53 -166 -53 -49 0 -50 25 -4 81 23 26
50 51 60 54 11 4 20 10 20 15 0 5 27 19 61 31 60 22 61 23 39 39 -19 14 -21
20 -11 38 7 12 16 22 21 22 5 0 12 11 16 25 3 14 10 25 15 25 5 0 26 11 47 23
67 43 152 61 168 36z m59 -143 c-3 -11 -7 -30 -9 -41 -11 -65 -92 -140 -164
-151 -62 -9 -71 4 -43 63 28 59 132 143 177 143 8 0 14 4 14 10 0 5 7 7 16 3
10 -4 14 -13 9 -27z m445 8 c28 -24 30 -28 16 -42 -25 -25 -66 -1 -66 38 0 37
9 38 50 4z m715 -9 c0 -38 -45 -59 -71 -33 -14 14 -13 18 13 42 36 34 58 30
58 -9z m-631 10 c8 -9 36 -19 61 -24 56 -10 73 -24 56 -44 -32 -39 -113 -23
-141 27 -7 14 -17 26 -22 26 -10 0 13 29 24 30 4 0 13 -7 22 -15z m1130 -23
c27 -15 54 -35 60 -44 6 -10 16 -18 21 -18 14 0 49 -96 40 -110 -28 -45 -204
59 -205 122 0 12 -7 32 -15 42 -11 15 -12 23 -3 33 13 16 35 11 102 -25z
m-796 -42 c3 -17 -52 -57 -83 -61 -33 -5 -85 28 -85 55 0 22 3 23 82 22 64 -2
83 -5 86 -16z m-467 -17 c34 -33 37 -49 9 -56 -26 -7 -60 28 -60 60 0 30 15
29 51 -4z m809 -12 c0 -32 -10 -43 -47 -47 -16 -1 -23 3 -23 14 1 21 25 54 33
45 4 -3 7 -1 7 5 0 7 7 12 15 12 10 0 15 -10 15 -29z m-700 -12 c44 -23 51
-44 19 -54 -46 -15 -99 24 -85 61 7 19 18 18 66 -7z m606 6 c4 -8 -1 -26 -10
-40 -19 -28 -66 -34 -85 -11 -13 15 -13 15 44 48 38 21 44 22 51 3z m-143 -56
c-24 -48 -120 -56 -138 -12 -9 24 7 33 65 38 30 3 58 9 64 15 18 18 24 -10 9
-41z m-876 15 c7 -20 -51 -130 -94 -178 -58 -63 -116 -48 -80 21 36 69 46 85
83 127 40 46 80 59 91 30z m626 7 c11 -1 8 -36 -5 -49 -7 -7 -31 -12 -54 -12
-33 0 -47 5 -58 22 -33 46 -16 52 117 39z m820 -23 c77 -78 129 -177 106 -204
-16 -20 -42 -5 -94 56 -49 58 -100 154 -90 170 12 19 47 9 78 -22z m-1064 -41
c14 -3 31 -2 37 4 9 7 20 7 36 -2 13 -7 36 -15 53 -19 32 -6 46 -37 23 -51
-23 -15 -63 -10 -85 10 -18 17 -26 18 -56 9 -44 -13 -81 6 -91 48 -9 36 12 49
39 25 11 -10 31 -21 44 -24z m691 4 c0 -38 -39 -65 -81 -56 -42 10 -37 36 14
62 57 29 67 28 67 -6z m-122 -14 c9 -45 -88 -88 -118 -52 -18 22 -4 45 27 45
15 0 37 7 48 15 23 18 39 15 43 -8z m805 -4 c82 -69 147 -142 140 -158 -4 -13
-13 -15 -36 -11 -17 4 -34 12 -38 18 -6 9 -11 9 -23 -1 -18 -15 -52 -7 -60 14
-3 8 -12 15 -20 15 -26 0 -38 114 -14 138 16 16 13 16 51 -15z m-2079 -36 c8
-39 7 -50 -5 -58 -8 -5 -11 -9 -6 -9 18 0 -51 -58 -75 -62 -15 -3 -25 -1 -22
3 8 14 -10 10 -32 -6 -48 -36 -77 -2 -42 48 28 40 97 105 121 112 9 4 17 11
17 16 0 6 8 9 18 7 12 -2 20 -18 26 -51z m406 -55 c0 -62 -4 -94 -15 -108 -8
-10 -15 -29 -15 -42 0 -31 -29 -40 -47 -16 -11 14 -13 36 -10 79 5 64 27 145
39 145 5 0 8 7 8 15 0 8 9 15 20 15 18 0 20 -7 20 -88z m700 72 c0 -16 -56
-63 -85 -70 -30 -7 -84 21 -94 49 -5 12 -7 24 -6 27 2 3 44 5 94 6 67 1 91 -2
91 -12z m336 -38 c-18 -29 -53 -34 -63 -10 -4 10 4 24 23 39 25 20 31 22 43
10 12 -12 12 -17 -3 -39z m232 -8 c27 -85 34 -131 26 -174 -5 -28 -10 -34 -27
-32 -27 4 -68 116 -62 168 2 19 4 50 4 68 1 25 5 32 20 32 15 0 24 -14 39 -62z
m-1064 41 c34 -16 41 -47 11 -55 -31 -8 -41 -1 -53 36 -12 34 -2 39 42 19z
m730 -45 c22 -8 20 -30 -4 -54 -25 -25 -72 -26 -94 -2 -15 18 -14 19 23 31 22
6 43 16 46 21 7 12 8 12 29 4z m-614 -17 c57 -20 64 -27 43 -43 -28 -21 -61
-17 -89 11 -40 41 -19 55 46 32z m228 -15 c14 -9 6 -42 -12 -54 -24 -17 -83
-8 -111 17 -33 28 -27 32 50 38 28 2 52 4 55 5 3 1 11 -2 18 -6z m242 -16 c0
-18 -36 -45 -67 -49 -49 -7 -104 46 -64 61 30 11 131 2 131 -12z m-1118 -44
c-2 -11 2 -23 8 -27 16 -10 12 -53 -7 -83 -26 -40 -35 -47 -63 -46 -14 0 -39
-7 -55 -17 -40 -24 -59 -12 -50 30 4 17 10 31 13 31 10 0 32 51 32 73 0 16 3
17 14 8 8 -7 16 -8 18 -4 7 17 71 64 82 60 6 -2 10 -13 8 -25z m1328 9 c0 -30
-26 -50 -57 -45 -54 10 -58 28 -10 48 46 21 67 19 67 -3z m615 -34 c55 -56 85
-103 85 -135 0 -30 -11 -33 -45 -12 -18 11 -34 17 -38 14 -11 -12 -65 27 -86
61 -22 38 -28 75 -11 75 6 0 10 8 10 18 0 21 8 32 23 32 6 0 34 -24 62 -53z
m-1172 4 c15 -2 6 -31 -12 -41 -29 -15 -46 -12 -72 10 -20 16 -22 21 -9 29 8
5 30 8 50 6 19 -2 38 -4 43 -4z m245 -4 c19 -22 -42 -77 -86 -77 -32 0 -82 37
-82 61 0 21 18 24 67 10 23 -7 37 -5 50 5 23 17 38 17 51 1z m169 -3 c7 -20
-21 -44 -51 -44 -26 0 -56 28 -49 46 8 21 92 19 100 -2z m-1089 -61 c19 -34
-31 -145 -81 -181 -29 -20 -33 -21 -44 -6 -19 26 12 110 59 160 46 49 53 52
66 27z m585 0 c30 -6 33 -13 15 -31 -27 -27 -98 -4 -98 33 0 14 5 16 28 11 15
-4 39 -10 55 -13z m582 8 c8 -14 -35 -51 -61 -51 -20 0 -52 26 -43 34 8 7 65
24 81 25 9 1 19 -3 23 -8z m535 -3 c0 -6 3 -8 7 -5 10 10 71 -81 83 -122 15
-54 13 -71 -9 -71 -18 0 -65 46 -95 93 -15 23 -27 102 -18 112 10 10 32 5 32
-7z m-933 -24 c6 -18 -26 -44 -54 -44 -29 0 -63 25 -63 47 0 11 13 13 57 11
31 -2 58 -8 60 -14z m248 7 c9 -15 -36 -51 -65 -51 -30 0 -50 16 -50 42 0 15
9 18 54 18 30 0 57 -4 61 -9z m-530 -41 c3 -5 16 -10 29 -10 30 0 37 -9 25
-31 -21 -40 -111 -6 -96 36 7 17 33 20 42 5z m730 -21 c0 -46 -84 -52 -93 -5
-3 12 4 16 27 16 16 0 33 5 36 11 11 17 30 4 30 -22z m-536 -15 c9 -8 -23 -34
-41 -34 -28 0 -58 18 -58 35 0 12 10 13 48 8 26 -3 49 -7 51 -9z m231 -9 c0
-21 -49 -55 -80 -55 -31 0 -80 34 -80 55 0 11 19 15 73 17 81 3 87 2 87 -17z
m180 12 c0 -35 -92 -49 -98 -15 -2 12 5 18 30 21 63 7 68 7 68 -6z m-972 -23
c16 -29 -28 -158 -58 -169 -18 -7 -40 21 -40 52 0 25 39 114 55 125 16 12 33
9 43 -8z m1486 -13 c21 -21 28 -41 32 -82 3 -30 1 -61 -5 -69 -27 -39 -104
119 -78 161 15 25 18 24 51 -10z m-1766 -12 c4 -23 -25 -49 -54 -49 -18 0 -24
5 -24 23 0 13 6 29 12 35 17 17 62 11 66 -9z m2066 2 c20 -22 12 -49 -17 -53
-25 -4 -57 26 -57 54 0 25 51 25 74 -1z m-1309 -22 c21 -20 -41 -38 -79 -23
-9 3 -16 15 -16 26 0 18 4 19 43 13 23 -4 46 -11 52 -16z m568 15 c12 -12 -6
-33 -34 -39 -31 -7 -69 1 -69 15 0 16 90 37 103 24z m-405 -27 c5 -24 -54 -49
-80 -34 -21 13 -31 35 -22 48 3 6 27 9 52 7 35 -2 48 -7 50 -21z m247 10 c17
-13 17 -15 -6 -30 -43 -30 -100 -11 -85 28 7 19 65 20 91 2z m-335 -70 c0 -34
-57 -50 -80 -22 -18 22 -3 35 41 35 25 0 39 -5 39 -13z m221 3 c12 0 5 -30
-10 -44 -34 -30 -91 -21 -109 18 -6 13 -9 26 -6 28 3 4 45 3 125 -2z m195 -2
c10 -15 -24 -38 -57 -38 -18 0 -28 6 -32 19 -3 11 -2 22 1 25 10 11 81 6 88
-6z m-331 -58 c4 -6 1 -18 -6 -26 -13 -16 -53 -12 -78 9 -12 10 -8 13 20 18
53 10 57 10 64 -1z m244 -5 c9 -10 -30 -35 -55 -35 -23 0 -39 24 -28 42 7 10
71 4 83 -7z m-273 -106 c6 -5 14 -6 17 -2 4 3 9 -1 13 -10 3 -9 19 -19 35 -22
37 -8 33 -25 -12 -47 -38 -19 -59 -9 -62 30 -1 23 -26 29 -43 12 -7 -7 -16 -4
-29 10 -14 16 -15 23 -6 34 13 16 64 12 87 -5z m299 -14 c0 -17 -6 -20 -39
-17 -33 3 -38 1 -34 -15 5 -20 -13 -43 -35 -43 -22 0 -67 24 -67 36 0 15 26
25 45 18 9 -4 15 0 15 10 0 9 8 16 20 16 11 0 20 5 20 11 0 6 16 9 38 7 29 -2
37 -7 37 -23z m65 -70 c0 -26 -14 -33 -25 -15 -9 14 1 40 15 40 5 0 10 -11 10
-25z"/>
<path d="M3620 2650 c0 -5 5 -10 11 -10 5 0 7 5 4 10 -3 6 -8 10 -11 10 -2 0
-4 -4 -4 -10z"/>
<path d="M1370 3420 c0 -22 8 -25 30 -10 13 9 13 11 0 20 -22 15 -30 12 -30
-10z"/>
<path d="M3517 3433 c-22 -6 -18 -25 6 -29 11 -1 17 5 17 17 0 10 -1 18 -2 18
-2 -1 -11 -3 -21 -6z"/>
<path d="M2510 3409 c0 -5 5 -7 10 -4 6 3 10 8 10 11 0 2 -4 4 -10 4 -5 0 -10
-5 -10 -11z"/>
<path d="M3741 3384 c-40 -29 -125 -33 -171 -9 -17 9 -30 11 -30 6 0 -6 22
-17 49 -25 92 -27 147 -69 134 -102 -3 -9 2 -14 16 -14 12 0 21 5 21 10 0 6 7
10 15 10 19 0 20 16 2 27 -8 4 -17 16 -20 27 -7 17 -3 18 35 13 l43 -7 -37 16
c-21 9 -38 20 -38 25 0 8 9 10 62 14 25 1 35 15 10 15 -11 0 -24 5 -27 10 -9
15 -26 11 -64 -16z"/>
<path d="M1085 3393 c-16 -3 -33 -8 -38 -12 -8 -8 80 -12 103 -5 13 5 13 6 0
14 -8 6 -19 9 -25 8 -5 0 -23 -3 -40 -5z"/>
<path d="M2675 3380 c-4 -6 3 -10 14 -10 25 0 27 6 6 13 -8 4 -17 2 -20 -3z"/>
<path d="M1355 3370 c3 -5 10 -10 16 -10 5 0 9 5 9 10 0 6 -7 10 -16 10 -8 0
-12 -4 -9 -10z"/>
<path d="M1146 3355 c-16 -12 -17 -15 -4 -20 25 -10 10 -41 -30 -60 -25 -12
-32 -19 -22 -23 7 -3 16 0 18 7 3 9 9 7 23 -5 21 -19 49 -12 49 12 0 21 34 52
85 75 l40 19 -41 0 c-23 0 -54 2 -70 5 -18 3 -37 -1 -48 -10z"/>
<path d="M1426 3332 c-2 -4 4 -8 14 -9 11 -1 22 2 25 8 4 5 -3 9 -14 9 -11 0
-22 -4 -25 -8z"/>
<path d="M3446 3325 c4 -9 11 -14 16 -13 15 5 11 23 -6 26 -11 2 -14 -2 -10
-13z"/>
<path d="M2184 3316 c-8 -22 3 -33 18 -18 9 9 9 15 0 24 -9 9 -13 7 -18 -6z"/>
<path d="M2515 3320 c3 -5 11 -10 16 -10 6 0 7 5 4 10 -3 6 -11 10 -16 10 -6
0 -7 -4 -4 -10z"/>
<path d="M911 3299 c-34 -14 -215 -27 -299 -21 -46 3 -78 0 -84 -6 -8 -8 -6
-13 8 -19 10 -4 29 -17 41 -30 21 -20 152 -68 161 -58 3 3 -4 8 -14 11 -10 4
-32 16 -47 27 -27 18 -27 20 -11 39 10 10 27 18 38 17 12 -2 53 1 91 5 82 9
218 45 170 45 -16 0 -41 -5 -54 -10z"/>
<path d="M1013 3303 c9 -2 23 -2 30 0 6 3 -1 5 -18 5 -16 0 -22 -2 -12 -5z"/>
<path d="M3873 3303 c9 -2 23 -2 30 0 6 3 -1 5 -18 5 -16 0 -22 -2 -12 -5z"/>
<path d="M3996 3285 c23 -7 77 -16 120 -20 111 -9 124 -12 124 -35 0 -19 -48
-60 -71 -60 -7 0 -10 -3 -6 -6 12 -12 143 36 185 68 23 18 42 36 42 40 0 5
-64 8 -142 8 -79 -1 -170 4 -203 10 -79 13 -100 11 -49 -5z"/>
<path d="M1400 3260 c-20 -12 -10 -19 14 -10 11 3 15 9 10 13 -6 3 -16 2 -24
-3z"/>
<path d="M2648 3253 c7 -3 16 -2 19 1 4 3 -2 6 -13 5 -11 0 -14 -3 -6 -6z"/>
<path d="M3520 3239 c79 -36 118 -87 89 -116 -17 -17 16 -27 76 -24 18 1 18 3
-7 24 -15 12 -28 31 -30 42 -4 26 33 25 93 -4 23 -12 52 -21 63 -21 12 1 -12
16 -51 35 -40 18 -73 39 -73 45 0 6 -20 10 -53 9 -32 -1 -65 4 -84 15 -18 9
-40 16 -50 16 -10 0 2 -10 27 -21z"/>
<path d="M3818 3253 c6 -2 18 -2 25 0 6 3 1 5 -13 5 -14 0 -19 -2 -12 -5z"/>
<path d="M1346 3238 c-10 -6 -41 -10 -67 -9 -27 0 -49 -4 -49 -9 0 -5 -17 -17
-37 -27 -33 -15 -35 -18 -16 -21 12 -2 31 2 42 7 62 33 69 -12 9 -53 l-43 -28
32 4 c18 3 34 1 35 -3 2 -3 13 -3 26 2 19 7 21 11 10 28 -10 16 -9 23 5 39 9
10 17 24 17 30 0 7 6 12 13 12 6 0 23 9 37 20 27 21 17 27 -14 8z"/>
<path d="M2840 3210 c0 -13 7 -20 20 -20 11 0 20 4 20 10 0 5 -9 14 -20 20
-17 9 -20 8 -20 -10z"/>
<path d="M2517 3169 c-25 -14 -21 -29 8 -27 27 2 29 6 17 25 -5 8 -13 8 -25 2z"/>
<path d="M1115 3154 l-30 -13 27 -1 c15 0 30 5 33 11 11 16 2 17 -30 3z"/>
<path d="M1010 3120 c-25 -11 -38 -19 -29 -19 18 -1 89 26 89 34 0 7 -11 5
-60 -15z"/>
<path d="M2556 3132 c-3 -6 -1 -14 5 -17 14 -9 20 -2 10 14 -6 8 -11 9 -15 3z"/>
<path d="M2768 3118 c11 -14 52 -31 52 -22 0 2 -15 11 -32 20 -28 14 -31 15
-20 2z"/>
<path d="M3901 3106 c2 -2 24 -6 49 -9 30 -4 38 -3 25 3 -19 8 -83 14 -74 6z"/>
<path d="M845 3080 c-11 -5 -49 -13 -85 -17 l-65 -9 39 -18 c22 -10 56 -20 75
-24 33 -5 35 -4 22 12 -17 21 -9 31 44 50 32 12 35 15 15 15 -14 0 -34 -4 -45
-9z"/>
<path d="M4030 3073 c19 -8 45 -19 58 -24 13 -5 20 -13 17 -19 -10 -17 38 -10
75 10 l35 19 -35 1 c-19 0 -62 7 -95 15 -77 18 -100 18 -55 -2z"/>
<path d="M1238 3021 c-54 -25 -56 -31 -12 -31 32 0 41 5 51 25 13 29 11 29
-39 6z"/>
<path d="M3620 3032 c1 -23 30 -42 66 -42 21 0 34 4 29 8 -16 14 -95 43 -95
34z"/>
<path d="M4060 3010 c-23 -7 -23 -8 -3 -9 12 -1 25 4 28 9 3 6 5 10 3 9 -2 -1
-14 -5 -28 -9z"/>
<path d="M3963 2881 c1 -5 -7 -17 -18 -25 -19 -15 -18 -15 20 -16 24 0 35 3
27 8 -7 5 -10 16 -6 25 4 12 1 17 -10 17 -9 0 -15 -4 -13 -9z"/>
<path d="M922 2855 c-11 -13 -9 -15 12 -13 15 1 22 7 19 15 -7 17 -15 16 -31
-2z"/>
<path d="M1025 2830 c3 -5 -5 -20 -18 -32 -13 -13 -22 -28 -20 -35 4 -10 7
-10 18 0 7 7 11 15 8 20 -2 4 3 7 12 7 9 0 29 6 43 14 15 8 38 19 52 24 21 9
15 11 -38 11 -40 1 -61 -3 -57 -9z"/>
<path d="M3688 2773 c7 -3 16 -2 19 1 4 3 -2 6 -13 5 -11 0 -14 -3 -6 -6z"/>
<path d="M3930 2710 c0 -5 7 -7 15 -4 8 4 15 8 15 10 0 2 -7 4 -15 4 -8 0 -15
-4 -15 -10z"/>
<path d="M1870 1906 c0 -9 5 -16 10 -16 6 0 10 4 10 9 0 6 -4 13 -10 16 -5 3
-10 -1 -10 -9z"/>
<path d="M1923 1913 c-7 -3 -13 -9 -13 -14 0 -6 5 -7 11 -3 8 4 8 0 0 -15 -8
-14 -8 -21 -1 -21 5 0 10 -7 10 -15 0 -9 6 -12 15 -9 10 4 12 10 6 18 -5 6
-11 23 -13 37 -2 15 -8 24 -15 22z"/>
<path d="M2969 1898 c0 -13 -2 -32 -4 -42 -2 -11 0 -27 5 -35 8 -13 10 -11 10
9 1 14 3 37 5 52 2 15 -1 30 -6 33 -5 4 -9 -4 -10 -17z"/>
<path d="M3021 1904 c0 -11 3 -14 6 -6 3 7 2 16 -1 19 -3 4 -6 -2 -5 -13z"/>
<path d="M2994 1762 c1 -43 4 -49 39 -70 31 -19 36 -26 26 -38 -6 -8 -8 -14
-3 -15 5 -1 23 -2 41 -4 18 -1 48 -6 68 -9 39 -8 48 6 15 24 -11 6 -20 15 -20
21 0 17 -63 70 -103 86 -21 8 -43 24 -50 34 -12 16 -13 12 -13 -29z"/>
<path d="M1881 1776 c-14 -14 -32 -26 -42 -26 -9 0 -43 -25 -75 -56 -48 -47
-63 -56 -93 -56 -19 0 -45 -7 -56 -15 -19 -14 -18 -15 15 -8 19 3 60 11 90 16
30 5 78 13 105 18 28 6 57 10 65 11 12 0 11 3 -3 11 -19 11 -14 27 12 37 12 6
15 16 11 50 l-5 44 -24 -26z"/>
<path d="M1419 1753 c-4 -75 10 -117 37 -106 20 8 44 -15 44 -42 0 -13 5 -22
13 -21 40 8 67 19 67 27 0 5 -7 6 -15 2 -16 -5 -55 22 -55 39 0 5 -20 34 -45
65 -32 39 -45 49 -46 36z"/>
<path d="M3445 1722 c-22 -24 -42 -49 -44 -55 -8 -26 -46 -57 -70 -58 -24 0
-23 -2 9 -14 39 -15 93 -20 72 -7 -24 16 11 58 41 49 16 -4 39 53 28 67 -14
16 -4 26 17 18 14 -4 15 -3 6 9 -6 8 -13 19 -15 25 -2 6 -22 -9 -44 -34z"/>
<path d="M1320 1696 c0 -31 6 -34 13 -6 3 11 1 23 -4 26 -5 3 -9 -6 -9 -20z"/>
<path d="M3570 1688 c0 -19 2 -20 10 -8 13 19 13 30 0 30 -5 0 -10 -10 -10
-22z"/>
<path d="M2895 1660 c11 -5 31 -8 45 -8 l25 0 -25 8 c-14 4 -34 8 -45 8 l-20
1 20 -9z"/>
<path d="M3245 1620 c-30 -8 -30 -8 8 -9 23 -1 36 3 32 9 -3 6 -7 9 -8 9 -1
-1 -15 -5 -32 -9z"/>
<path d="M1446 1584 c-3 -9 -13 -14 -21 -10 -8 3 -17 1 -20 -4 -9 -15 29 -12
50 3 11 9 14 16 8 20 -6 4 -14 0 -17 -9z"/>
<path d="M3435 1579 c-5 -7 29 -19 58 -19 9 0 17 6 17 13 0 13 -68 19 -75 6z"/>
<path d="M1336 1555 c25 -19 40 -19 24 0 -7 8 -20 15 -28 15 -13 0 -12 -3 4
-15z"/>
<path d="M3550 1560 c-11 -7 -9 -11 14 -20 16 -6 31 -8 34 -5 3 3 0 5 -6 5 -7
0 -12 7 -12 15 0 17 -9 19 -30 5z"/>
<path d="M2393 1553 c9 -2 23 -2 30 0 6 3 -1 5 -18 5 -16 0 -22 -2 -12 -5z"/>
<path d="M2512 1473 c3 -73 6 -87 21 -89 21 -3 22 3 2 23 -8 8 -12 19 -9 25 4
6 8 37 8 69 2 43 -2 59 -11 59 -11 0 -13 -20 -11 -87z"/>
<path d="M2175 1530 c4 -12 -1 -31 -13 -48 -10 -15 -29 -44 -41 -64 l-23 -38
64 2 c39 1 50 3 28 5 -59 7 -59 6 7 126 13 24 9 37 -13 37 -11 0 -13 -6 -9
-20z"/>
<path d="M2352 1533 c-13 -24 -5 -36 52 -76 14 -10 26 -23 26 -30 0 -19 -39
-39 -63 -32 -20 6 -21 5 -3 -6 15 -9 26 -8 52 5 50 23 46 56 -11 88 -19 10
-32 27 -35 45 -6 28 -6 28 -18 6z"/>
<path d="M2670 1503 c0 -27 -3 -65 -6 -85 -5 -25 -3 -38 5 -38 6 0 11 13 11
28 0 16 3 32 7 35 13 13 9 107 -4 107 -9 0 -13 -16 -13 -47z"/>
<path d="M1956 1528 c-7 -21 -36 -147 -36 -153 0 -14 18 -3 23 15 3 12 14 20
29 21 15 0 18 3 8 6 -22 9 -27 20 -22 53 3 20 10 30 21 30 20 0 44 -39 39 -61
-3 -17 39 -62 53 -57 6 2 1 15 -10 30 -12 14 -21 31 -21 37 0 6 -11 29 -25 51
-25 39 -52 52 -59 28z"/>
<path d="M2760 1520 c8 -15 6 -24 -9 -39 -19 -19 -19 -21 -3 -60 9 -23 22 -41
29 -41 9 0 8 10 -3 36 -14 32 -14 40 -1 67 17 33 13 57 -9 57 -12 0 -12 -4 -4
-20z"/>
<path d="M2843 1509 c11 -67 34 -134 48 -136 23 -5 33 9 62 75 37 87 34 101
-6 25 -42 -83 -62 -84 -78 -3 -12 64 -36 99 -26 39z"/>
<path d="M3618 1533 c7 -3 16 -2 19 1 4 3 -2 6 -13 5 -11 0 -14 -3 -6 -6z"/>
<path d="M3036 1468 c-3 -29 -9 -66 -12 -83 -6 -27 -5 -29 9 -15 19 17 36 150
20 150 -6 0 -13 -24 -17 -52z"/>
<path d="M1764 1487 c3 -13 8 -49 12 -80 8 -65 24 -87 24 -33 0 22 5 36 13 36
7 1 4 6 -6 15 -12 8 -19 27 -20 49 -1 24 -6 36 -15 36 -10 0 -12 -7 -8 -23z"/>
<path d="M1850 1470 c0 -22 4 -40 9 -40 12 0 22 45 15 64 -11 29 -24 16 -24
-24z"/>
<path d="M3155 1498 c-33 -17 -45 -40 -45 -85 0 -35 5 -48 30 -70 17 -14 30
-33 31 -42 0 -14 1 -14 6 -1 3 8 15 23 27 32 21 17 21 18 -11 18 -40 0 -63 23
-63 61 0 39 16 68 42 78 12 4 17 10 12 14 -5 3 -18 1 -29 -5z"/>
<path d="M1670 1488 c1 -7 9 -47 19 -88 13 -51 19 -65 20 -44 1 43 -20 144
-30 144 -5 0 -9 -6 -9 -12z"/>
<path d="M3208 1493 c6 -2 18 -2 25 0 6 3 1 5 -13 5 -14 0 -19 -2 -12 -5z"/>
<path d="M1594 1444 c4 -19 10 -42 13 -50 3 -7 -2 -17 -11 -20 -11 -4 -29 8
-57 40 -37 42 -71 58 -82 39 -3 -5 4 -33 14 -63 10 -30 19 -66 19 -79 0 -17 3
-22 10 -15 7 7 5 24 -5 54 -15 43 -14 70 3 70 4 0 31 -22 58 -50 27 -27 55
-50 62 -50 16 0 15 41 -4 106 -17 61 -30 72 -20 18z"/>
<path d="M3303 1458 c-38 -60 -42 -91 -15 -126 12 -15 33 -25 60 -29 36 -5 45
-2 72 25 38 39 43 102 8 126 -27 19 -36 13 -14 -9 18 -19 20 -42 7 -78 -22
-57 -74 -74 -109 -37 -16 17 -18 28 -12 63 5 24 17 49 30 59 22 18 22 18 2 18
-12 0 -24 -6 -29 -12z"/>
<path d="M1370 1425 c0 -11 9 -43 20 -71 22 -58 15 -78 -32 -89 -35 -9 -64 20
-79 80 -12 48 -29 69 -29 36 0 -25 38 -113 53 -123 23 -15 66 -8 93 15 26 23
27 25 15 73 -7 27 -18 60 -26 74 -13 22 -14 23 -15 5z"/>
<path d="M3515 1410 c-17 -19 -17 -21 19 -60 42 -47 44 -55 14 -71 -13 -7 -18
-14 -11 -16 21 -7 53 17 53 41 0 13 -13 34 -30 49 -29 26 -40 57 -20 57 6 0
10 5 10 10 0 16 -15 12 -35 -10z"/>
<path d="M4024 1336 c-1 -42 -8 -76 -21 -102 -11 -22 -33 -68 -49 -104 -15
-36 -34 -72 -41 -81 -7 -8 -13 -21 -13 -27 0 -6 -15 -13 -32 -15 l-33 -4 36
-1 36 -2 57 115 c32 63 64 122 72 130 16 16 8 18 156 -39 36 -14 72 -26 80
-26 7 1 -9 10 -36 20 -27 11 -54 24 -60 30 -5 5 -18 10 -27 10 -14 0 -59 19
-88 38 -3 1 -5 28 -5 60 -1 42 -5 57 -16 59 -12 3 -15 -10 -16 -61z"/>
<path d="M2578 1383 c7 -3 16 -2 19 1 4 3 -2 6 -13 5 -11 0 -14 -3 -6 -6z"/>
<path d="M720 1245 c0 -17 -5 -36 -12 -43 -9 -9 -9 -12 0 -12 13 0 22 -18 63
-125 21 -55 67 -121 77 -111 2 3 -5 17 -16 33 -11 15 -23 45 -27 66 -3 20 -10
37 -15 37 -5 0 -12 17 -16 38 -4 20 -10 42 -14 47 -4 6 -15 30 -23 55 -15 42
-16 43 -17 15z"/>
<path d="M2092 1261 c-8 -4 -12 -16 -10 -26 3 -19 -4 -24 -74 -55 -50 -21
-113 -27 -123 -10 -9 14 -25 3 -25 -17 0 -13 9 -15 60 -9 33 4 76 14 95 22 26
10 41 12 55 4 27 -14 27 -14 40 25 6 19 15 35 18 35 4 0 13 9 20 20 11 18 10
20 -15 20 -16 0 -34 -4 -41 -9z"/>
<path d="M2220 1260 c0 -5 4 -10 9 -10 6 0 13 5 16 10 3 6 -1 10 -9 10 -9 0
-16 -4 -16 -10z"/>
<path d="M2304 1254 c3 -9 6 -18 6 -20 0 -3 5 -2 10 1 16 10 12 35 -6 35 -11
0 -14 -5 -10 -16z"/>
<path d="M2380 1260 c0 -5 11 -10 25 -10 57 0 38 -132 -32 -228 -38 -51 -55
-56 -80 -24 -11 14 -13 12 -13 -10 0 -14 6 -31 14 -37 22 -19 57 4 101 65 52
73 69 82 84 46 12 -27 56 -80 98 -115 21 -18 22 -18 33 4 19 35 30 79 19 79
-5 0 -9 -8 -9 -19 0 -35 -23 -42 -58 -18 -17 12 -33 29 -37 37 -3 8 -17 35
-30 60 -33 59 -36 160 -6 160 11 0 21 -6 23 -12 3 -8 9 -4 17 10 12 22 12 22
-69 22 -47 0 -80 -4 -80 -10z"/>
<path d="M2567 1255 c28 -19 63 -113 63 -167 0 -38 1 -40 13 -23 13 17 16 17
68 -8 30 -14 70 -29 90 -32 36 -7 36 -7 43 35 4 28 2 51 -8 71 -12 24 -12 30
0 40 11 9 22 8 47 -5 19 -8 61 -17 93 -18 56 -3 59 -2 63 22 3 24 2 24 -16 7
-24 -21 -64 -22 -111 -1 -63 27 -67 30 -67 55 0 13 -4 27 -10 31 -12 9 -85 11
-85 3 0 -3 11 -18 24 -32 29 -31 57 -156 39 -174 -30 -30 -141 44 -190 128
-22 37 -24 49 -15 64 11 17 9 19 -25 19 -36 0 -37 0 -16 -15z"/>
<path d="M2660 1260 c20 -13 40 -13 40 0 0 6 -12 10 -27 10 -22 0 -25 -2 -13
-10z"/>
<path d="M1860 1228 c0 -17 20 -47 20 -31 0 6 7 19 16 27 14 15 13 16 -10 16
-14 0 -26 -6 -26 -12z"/>
<path d="M2999 1229 c15 -6 34 -6 50 0 22 8 19 9 -24 10 -42 0 -46 -2 -26 -10z"/>
<path d="M3210 1200 c8 -5 22 -10 30 -10 13 0 13 1 0 10 -8 5 -22 10 -30 10
-13 0 -13 -1 0 -10z"/>
<path d="M1598 1183 c7 -3 16 -2 19 1 4 3 -2 6 -13 5 -11 0 -14 -3 -6 -6z"/>
<path d="M2280 1182 c0 -14 -73 -92 -87 -92 -7 0 -13 -4 -13 -9 0 -13 -57 -34
-75 -27 -10 4 -15 19 -15 51 0 25 -4 45 -9 45 -10 0 -19 -74 -13 -108 4 -21 8
-23 40 -17 45 8 122 44 122 56 0 6 9 5 20 -1 11 -6 20 -9 21 -8 10 37 20 118
15 118 -3 0 -6 -4 -6 -8z"/>
<path d="M3308 1183 c7 -3 16 -2 19 1 4 3 -2 6 -13 5 -11 0 -14 -3 -6 -6z"/>
<path d="M1495 1160 c-98 -19 -218 -50 -228 -59 -4 -4 -1 -16 7 -27 14 -18 15
-18 28 0 16 20 129 64 196 76 23 4 45 10 49 13 7 8 4 8 -52 -3z"/>
<path d="M3375 1161 c-3 -6 1 -11 9 -11 10 0 16 -12 18 -36 2 -24 10 -42 25
-51 19 -13 21 -13 19 3 -2 10 3 29 11 43 20 39 16 51 -16 51 -16 0 -36 3 -44
6 -8 3 -18 1 -22 -5z"/>
<path d="M4304 1161 c4 -6 16 -11 27 -11 24 0 25 -29 3 -71 -23 -46 -64 -168
-73 -219 -12 -68 -21 -82 -46 -78 -14 3 -26 -2 -34 -14 -16 -26 -14 -28 18
-28 33 0 68 36 77 79 13 64 55 181 83 231 37 66 38 75 9 94 -33 20 -72 31 -64
17z"/>
<path d="M1198 1083 c7 -3 16 -2 19 1 4 3 -2 6 -13 5 -11 0 -14 -3 -6 -6z"/>
<path d="M393 1040 c-38 -16 -38 -52 0 -127 52 -102 117 -240 117 -248 0 -11
41 -45 54 -45 6 0 18 5 26 10 12 8 11 10 -6 10 -22 0 -64 42 -64 64 0 7 -7 19
-15 26 -8 7 -15 20 -15 30 0 9 -11 34 -25 54 -14 20 -25 43 -25 51 0 8 -4 17
-10 20 -5 3 -17 31 -26 61 -14 50 -14 57 0 79 9 14 15 25 14 24 -2 0 -13 -4
-25 -9z"/>
<path d="M1290 1020 c0 -21 -80 -80 -109 -80 -8 0 -12 -3 -9 -6 10 -10 92 19
111 40 15 17 24 66 12 66 -3 0 -5 -9 -5 -20z"/>
<path d="M3957 859 c4 -13 9 -17 15 -11 11 11 3 32 -12 32 -4 0 -6 -9 -3 -21z"/>
<path d="M3947 808 c-9 -34 1 -78 17 -78 7 0 21 7 32 15 18 14 18 15 -6 12
-22 -2 -26 3 -30 38 -5 38 -6 39 -13 13z"/>
<path d="M731 766 c-8 -10 -8 -16 3 -25 11 -10 14 -7 12 14 -1 29 0 29 -15 11z"/>
<path d="M750 697 c0 -22 -5 -25 -60 -31 -33 -4 -58 -11 -55 -15 3 -5 24 -5
47 1 24 5 53 7 66 5 18 -4 22 0 22 24 0 15 -4 31 -10 34 -6 3 -10 -4 -10 -18z"/>
</g>
</svg>
