<?xml version="1.0" standalone="no"?>
<!DOCTYPE svg PUBLIC "-//W3C//DTD SVG 20010904//EN"
 "http://www.w3.org/TR/2001/REC-SVG-20010904/DTD/svg10.dtd">
<svg version="1.0" xmlns="http://www.w3.org/2000/svg"
 width="226.000000pt" height="267.000000pt" viewBox="0 0 226.000000 267.000000"
 preserveAspectRatio="xMidYMid meet">

<g transform="translate(0.000000,267.000000) scale(0.100000,-0.100000)"
fill="#000000" stroke="none">
<path d="M881 2549 c-63 -28 -224 -192 -241 -244 -6 -22 -23 -64 -37 -94 -42
-90 -58 -269 -43 -461 6 -85 15 -159 19 -165 5 -5 14 -38 21 -73 9 -42 17 -61
25 -58 17 6 35 -87 35 -176 0 -124 45 -270 125 -407 52 -89 145 -202 203 -247
28 -21 51 -43 52 -47 0 -18 -319 19 -339 38 -2 3 5 15 16 28 29 31 53 82 53
109 0 13 -9 42 -20 66 -21 46 -37 51 -82 28 -16 -8 -28 -11 -28 -6 0 5 -6 15
-13 22 -8 7 -29 51 -47 96 -18 45 -36 85 -41 87 -4 3 -51 -35 -104 -84 -95
-88 -161 -131 -202 -131 -24 0 -58 56 -45 74 16 21 14 82 -3 96 -13 11 -20 10
-43 -7 -23 -17 -27 -27 -26 -69 1 -56 31 -250 48 -308 13 -45 55 -82 82 -72
15 6 16 9 5 15 -21 13 -3 31 30 31 33 0 38 -13 12 -30 -15 -9 -14 -10 7 -4 45
12 190 120 190 141 0 4 -17 -9 -38 -28 -44 -42 -92 -73 -100 -65 -3 3 -3 7 -1
9 52 36 126 98 169 141 67 69 90 74 26 6 -49 -52 -63 -80 -21 -40 14 13 28 20
32 17 3 -4 -1 -62 -9 -128 -18 -136 -14 -160 34 -221 29 -38 20 -52 -14 -21
-10 9 -18 11 -18 6 0 -25 74 -73 148 -97 112 -35 216 -47 419 -47 292 -1 483
38 548 111 l20 23 -23 -12 c-32 -17 -40 -6 -14 22 11 12 30 42 40 67 19 43 19
50 4 168 -8 67 -12 125 -9 128 3 3 44 -28 91 -69 92 -78 148 -111 208 -122 33
-6 41 -3 67 22 23 24 30 42 36 89 3 32 15 104 26 159 25 122 23 152 -13 178
-22 16 -30 18 -42 8 -24 -20 -30 -70 -12 -90 20 -22 21 -45 2 -38 -9 4 -16 -3
-20 -19 -14 -53 -98 -12 -226 110 -131 126 -172 151 -209 127 -7 -5 -28 -54
-46 -109 l-32 -100 34 1 c19 1 40 -6 51 -16 16 -17 14 -17 -39 -11 l-56 6 -16
-41 c-26 -63 -22 -97 19 -153 19 -28 33 -52 31 -54 -6 -6 -155 -34 -182 -34
-26 0 -38 28 -22 56 6 10 -9 2 -33 -19 -24 -20 -49 -37 -56 -37 -7 0 -21 -3
-31 -6 -17 -6 -4 9 122 125 71 66 93 96 144 194 58 109 88 204 100 307 6 52
14 96 19 99 15 10 29 43 42 99 7 29 18 52 25 52 8 0 15 21 20 58 4 31 11 65
17 75 5 10 16 78 24 150 12 106 13 152 4 237 -7 58 -13 121 -14 140 -3 35 -34
116 -82 216 -34 70 -174 204 -240 229 -34 13 -49 15 -52 7 -2 -7 -8 -12 -14
-12 -5 0 -15 -6 -22 -13 -11 -10 -10 -15 1 -25 7 -7 13 -22 13 -33 0 -12 5
-19 12 -17 29 10 69 -71 71 -145 2 -42 -2 -52 -26 -73 -22 -18 -40 -24 -77
-24 l-50 0 20 -32 c21 -35 27 -74 10 -63 -7 4 -8 -8 -4 -34 4 -26 3 -41 -4
-41 -6 0 -13 6 -15 13 -3 6 -6 -9 -6 -34 -1 -51 -8 -64 -26 -49 -9 8 -14 0
-18 -29 -8 -66 -67 -129 -67 -73 0 15 -5 34 -10 42 -9 13 -11 13 -19 1 -8 -12
-12 -12 -25 2 -9 8 -16 19 -16 24 0 5 -8 16 -17 25 -10 9 -24 24 -31 33 -13
15 -15 15 -28 -2 -12 -16 -13 -15 -14 17 0 19 4 42 10 50 6 9 5 17 -2 21 -7 4
-6 13 2 29 10 19 9 21 -7 18 -10 -2 -17 -11 -15 -19 2 -12 -9 -16 -48 -17 -29
0 -50 4 -50 10 0 15 39 70 69 95 24 22 25 23 5 23 -60 0 -78 97 -34 185 14 28
31 50 38 50 7 0 19 13 27 29 14 27 14 31 -7 53 -26 27 -30 27 -87 2z m-44
-356 c-3 -10 -5 -4 -5 12 0 17 2 24 5 18 2 -7 2 -21 0 -30z m580 -65 c-3 -8
-6 -5 -6 6 -1 11 2 17 5 13 3 -3 4 -12 1 -19z m-30 -20 c-3 -8 -6 -5 -6 6 -1
11 2 17 5 13 3 -3 4 -12 1 -19z m-37 -8 c0 -11 -4 -20 -10 -20 -5 0 -10 9 -10
20 0 11 5 20 10 20 6 0 10 -9 10 -20z m-380 -24 c-6 -8 -28 -20 -48 -27 -20
-6 -41 -18 -45 -26 -10 -17 -27 -8 -27 14 0 33 31 53 83 53 42 0 48 -2 37 -14z
m69 -247 c-16 -10 -23 -4 -14 10 3 6 11 8 17 5 6 -4 5 -9 -3 -15z m221 5 c0
-8 -5 -12 -10 -9 -6 4 -8 11 -5 16 9 14 15 11 15 -7z m40 1 c0 -8 -4 -15 -10
-15 -5 0 -10 7 -10 15 0 8 5 15 10 15 6 0 10 -7 10 -15z m-385 -5 c5 -8 11 -8
20 0 10 8 15 8 20 0 4 -6 -1 -17 -10 -24 -15 -11 -15 -15 -4 -33 12 -20 14
-20 25 -5 10 14 14 14 28 3 14 -11 16 -11 16 3 0 21 16 21 25 -1 6 -16 8 -16
23 3 30 37 172 44 172 8 0 -17 16 -18 24 -1 3 8 9 6 20 -7 9 -11 16 -14 16 -8
0 19 28 14 33 -5 3 -13 6 -10 12 11 5 19 4 31 -5 36 -7 4 -9 13 -5 19 5 9 10
9 21 0 11 -9 18 -9 26 -1 17 17 28 15 28 -5 0 -13 3 -14 12 -5 19 19 28 14 28
-13 0 -14 5 -24 12 -23 7 2 14 -7 16 -19 2 -13 7 -23 11 -23 16 0 20 -57 7
-111 l-12 -54 -82 2 c-68 2 -91 7 -140 32 -53 27 -110 77 -126 113 -5 11 -7
11 -12 0 -16 -34 -70 -83 -117 -106 -65 -32 -168 -59 -179 -48 -5 5 -14 39
-20 76 -10 57 -9 68 6 84 9 10 16 28 16 40 0 15 5 20 15 16 11 -5 15 1 15 22
0 22 3 25 12 16 16 -16 28 -15 28 3 0 17 16 20 25 5z m90 0 c3 -5 -1 -10 -9
-10 -9 0 -16 5 -16 10 0 6 4 10 9 10 6 0 13 -4 16 -10z m105 -278 c0 -43 6
-53 26 -45 9 3 14 20 14 44 0 21 5 39 10 39 16 0 12 -76 -4 -90 -8 -6 -25 -10
-38 -8 -20 3 -23 10 -26 51 -2 28 1 47 7 47 6 0 11 -17 11 -38z m15 -154 l20
-33 3 33 c2 17 7 32 13 32 12 0 12 -97 0 -104 -5 -4 -20 11 -33 31 l-23 38 -6
-35 c-6 -31 -7 -29 -8 18 0 28 3 52 7 52 4 0 17 -15 27 -32z m15 -188 c0 -27
-4 -50 -10 -50 -5 0 -10 23 -10 50 0 28 5 50 10 50 6 0 10 -22 10 -50z m14
-116 c24 -9 19 -43 -6 -53 -13 -5 -26 -7 -30 -4 -5 2 -8 -5 -8 -16 0 -12 -4
-21 -10 -21 -5 0 -10 23 -10 50 0 46 2 50 24 50 13 0 31 -3 40 -6z m526 -39
c19 -23 5 -29 -32 -15 -50 20 -56 30 -16 30 20 0 41 -7 48 -15z m-282 -59 c3
-13 10 -16 28 -12 18 5 26 2 30 -11 3 -10 10 -26 15 -36 10 -19 -4 -57 -22
-57 -6 0 -7 -4 -4 -10 4 -6 -7 -10 -24 -10 -19 0 -35 7 -42 18 -8 12 -20 17
-34 14 -24 -4 -38 19 -40 66 -2 46 85 81 93 38z m-929 -43 c-62 -66 -93 -93
-137 -119 -67 -41 -60 -22 10 29 35 25 81 64 103 86 21 23 44 41 49 41 5 0 -6
-16 -25 -37z m1326 -4 c22 -22 68 -61 103 -86 70 -51 77 -70 10 -30 -43 26
-100 77 -147 130 -39 43 -9 32 34 -14z m-645 -51 c23 -51 27 -83 6 -55 -17 22
-42 22 -55 0 -16 -30 -22 -8 -8 28 8 19 17 42 20 52 9 26 16 21 37 -25z m586
-158 c47 -44 103 -92 126 -107 22 -15 36 -29 30 -31 -24 -8 -122 73 -221 181
-60 64 -24 41 65 -43z m-1496 56 c0 -19 -28 -28 -51 -15 -26 14 -15 29 22 29
18 0 29 -5 29 -14z m1819 5 c11 -7 10 -11 -4 -19 -23 -12 -55 -4 -55 14 0 16
37 19 59 5z m-895 -43 c-4 -7 -18 -27 -30 -45 l-24 -32 32 -4 c29 -3 27 -4 -9
-5 -50 -2 -52 5 -17 47 24 29 25 31 5 31 -11 0 -23 5 -26 10 -4 6 10 10 35 10
30 0 39 -3 34 -12z m-937 -18 c1 -11 -2 -18 -8 -15 -11 7 -12 35 -1 35 4 0 8
-9 9 -20z m26 -87 c9 -29 12 -53 8 -53 -9 0 -31 68 -31 95 0 27 6 16 23 -42z
m1403 -26 c-17 -24 -55 -47 -81 -47 -30 0 -14 22 30 41 24 11 47 24 51 30 3 6
8 8 11 6 2 -3 -3 -16 -11 -30z m-1023 -5 c47 -23 61 -42 31 -42 -23 0 -68 29
-83 52 -7 11 -9 18 -4 16 4 -2 29 -14 56 -26z m1365 -49 c2 -8 -5 -13 -16 -13
-28 0 -52 10 -52 22 0 14 63 5 68 -9z m-503 -2 c-37 -35 -318 -58 -517 -43
-79 7 -163 18 -188 27 l-45 14 50 -4 c151 -14 505 -15 595 -2 52 8 99 15 105
16 6 0 6 -2 0 -8z m-848 -98 c-4 -3 -2 -12 5 -20 8 -10 8 -17 0 -25 -11 -11
-32 -3 -32 14 0 7 6 6 15 -2 9 -8 15 -9 15 -2 0 6 -4 14 -10 17 -14 8 -13 25
2 25 6 0 8 -3 5 -7z m959 -15 c10 -12 13 -18 5 -13 -8 4 -17 2 -23 -6 -8 -11
-9 -11 -5 2 3 9 0 22 -6 28 -7 7 -7 11 -1 11 6 0 19 -10 30 -22z m-910 -4
c-19 -19 -20 -31 -3 -37 9 -4 9 -6 0 -6 -6 -1 -15 4 -18 9 -10 16 5 50 21 50
13 0 13 -2 0 -16z m825 7 c-8 -5 -12 -18 -8 -30 3 -12 1 -19 -4 -15 -20 12 -8
54 15 54 6 0 5 -4 -3 -9z m48 -36 c0 -5 -4 -3 -9 5 -5 8 -9 22 -9 30 0 16 17
-16 18 -35z m-799 25 c0 -5 -6 -7 -14 -4 -19 7 -31 -15 -17 -29 9 -9 14 -8 22
3 9 12 10 12 7 1 -5 -19 -19 -23 -37 -12 -19 12 -4 51 20 51 10 0 19 -4 19
-10z m646 -17 c-3 -8 -2 -12 3 -9 5 3 11 0 14 -7 3 -7 -4 -12 -19 -12 -16 0
-22 5 -19 13 3 8 5 20 5 28 0 9 5 12 11 9 6 -4 8 -14 5 -22z m-539 -3 c-8 -29
9 -34 27 -8 9 12 16 17 16 11 0 -6 6 -18 13 -25 12 -11 8 -14 -25 -14 -21 -1
-38 3 -38 8 0 6 -7 8 -15 4 -11 -4 -15 1 -15 19 0 19 5 25 21 25 16 0 20 -5
16 -20z m583 10 c0 -5 7 -10 15 -10 8 0 15 -7 15 -17 0 -15 -1 -15 -18 0 -10
10 -22 14 -25 10 -4 -3 -7 1 -7 10 0 10 5 17 10 17 6 0 10 -4 10 -10z m-650
-35 c5 3 10 14 11 23 0 11 2 12 6 4 7 -18 -15 -42 -33 -35 -8 3 -14 15 -13 27
0 20 1 20 10 -2 5 -13 13 -20 19 -17z m154 20 c3 -8 1 -15 -4 -15 -6 0 -10 7
-10 15 0 8 2 15 4 15 2 0 6 -7 10 -15z m26 -17 c0 -21 -3 -29 -10 -22 -5 5 -7
19 -4 32 9 31 14 27 14 -10z m38 25 c-21 -5 -24 -43 -4 -43 17 0 46 27 46 43
1 7 8 -1 16 -16 9 -16 13 -31 10 -34 -3 -3 -10 5 -15 18 -5 13 -10 17 -10 9
-1 -21 -46 -41 -60 -27 -23 23 -11 58 18 56 13 -1 13 -2 -1 -6z m131 -40 c1
-15 -25 -17 -34 -3 -3 5 -1 20 6 32 12 22 12 22 20 3 4 -11 8 -26 8 -32z m66
26 c4 12 9 20 11 18 3 -2 -1 -16 -7 -31 l-13 -27 -13 23 c-7 13 -12 28 -12 33
0 6 6 -1 13 -14 l14 -24 7 22z m56 7 c-9 -10 -8 -16 4 -26 14 -12 19 -7 16 13
-1 5 3 6 9 2 15 -9 12 -22 -7 -29 -11 -5 -22 -1 -30 10 -10 14 -13 15 -14 3 0
-9 -2 -10 -6 -2 -2 7 2 19 9 27 16 19 35 21 19 2z m56 -23 c-3 -10 -5 -4 -5
12 0 17 2 24 5 18 2 -7 2 -21 0 -30z m43 -9 c0 -2 -7 -4 -15 -4 -8 0 -15 4
-15 10 0 5 7 7 15 4 8 -4 15 -8 15 -10z m-628 -88 c104 -24 313 -39 453 -32
114 5 188 14 335 41 l35 6 -27 -15 c-119 -69 -695 -74 -840 -7 -52 24 -40 26
44 7z"/>
<path d="M1165 1781 c3 -5 1 -12 -4 -16 -21 -13 50 -130 73 -122 6 2 25 -2 43
-10 43 -17 48 -17 50 6 1 13 -9 23 -29 32 -42 17 -86 55 -104 90 -8 16 -19 29
-25 29 -6 0 -8 -4 -4 -9z"/>
<path d="M1110 1064 c0 -9 7 -14 17 -12 25 5 28 28 4 28 -12 0 -21 -6 -21 -16z"/>
<path d="M1120 890 c0 -5 5 -10 11 -10 5 0 7 5 4 10 -3 6 -8 10 -11 10 -2 0
-4 -4 -4 -10z"/>
<path d="M850 430 c0 -5 5 -10 10 -10 6 0 10 5 10 10 0 6 -4 10 -10 10 -5 0
-10 -4 -10 -10z"/>
<path d="M1148 2273 c12 -2 32 -2 45 0 12 2 2 4 -23 4 -25 0 -35 -2 -22 -4z"/>
<path d="M1210 2241 c0 -5 7 -12 16 -15 14 -5 15 -4 4 9 -14 17 -20 19 -20 6z"/>
<path d="M610 1078 c35 -17 36 -18 20 -28 -12 -7 -11 -16 7 -57 11 -26 25 -60
31 -74 6 -14 20 -29 31 -32 12 -3 21 -4 21 -2 0 9 -32 125 -44 160 -13 37 -17
40 -53 42 -36 2 -37 2 -13 -9z"/>
</g>
</svg>
